<svg width="364" height="212" viewBox="0 0 364 212" fill="none" xmlns="http://www.w3.org/2000/svg">
<rect x="2" y="2" width="360" height="208" rx="6" fill="#E4CCFF" stroke="#D577FF" stroke-width="4"/>
<path d="M95.0088 58.2727C95.0088 60.1364 94.6679 61.7386 93.9861 63.0795C93.3043 64.4148 92.3696 65.4432 91.1821 66.1648C90.0003 66.8807 88.6565 67.2386 87.1508 67.2386C85.6395 67.2386 84.29 66.8807 83.1025 66.1648C81.9207 65.4432 80.9889 64.4119 80.3071 63.071C79.6253 61.7301 79.2844 60.1307 79.2844 58.2727C79.2844 56.4091 79.6253 54.8097 80.3071 53.4744C80.9889 52.1335 81.9207 51.1051 83.1025 50.3892C84.29 49.6676 85.6395 49.3068 87.1508 49.3068C88.6565 49.3068 90.0003 49.6676 91.1821 50.3892C92.3696 51.1051 93.3043 52.1335 93.9861 53.4744C94.6679 54.8097 95.0088 56.4091 95.0088 58.2727ZM92.4008 58.2727C92.4008 56.8523 92.1707 55.6562 91.7105 54.6847C91.256 53.7074 90.631 52.9688 89.8355 52.4688C89.0457 51.9631 88.1508 51.7102 87.1508 51.7102C86.1452 51.7102 85.2474 51.9631 84.4577 52.4688C83.6679 52.9688 83.0429 53.7074 82.5827 54.6847C82.1281 55.6562 81.9008 56.8523 81.9008 58.2727C81.9008 59.6932 82.1281 60.892 82.5827 61.8693C83.0429 62.8409 83.6679 63.5795 84.4577 64.0852C85.2474 64.5852 86.1452 64.8352 87.1508 64.8352C88.1508 64.8352 89.0457 64.5852 89.8355 64.0852C90.631 63.5795 91.256 62.8409 91.7105 61.8693C92.1707 60.892 92.4008 59.6932 92.4008 58.2727ZM100.18 59.2273V67H97.6316V53.9091H100.078V56.0398H100.24C100.541 55.3466 101.012 54.7898 101.654 54.3693C102.302 53.9489 103.117 53.7386 104.1 53.7386C104.992 53.7386 105.774 53.9261 106.444 54.3011C107.115 54.6705 107.634 55.2216 108.004 55.9545C108.373 56.6875 108.558 57.5937 108.558 58.6733V67H106.009V58.9801C106.009 58.0312 105.762 57.2898 105.268 56.7557C104.774 56.2159 104.095 55.946 103.231 55.946C102.64 55.946 102.115 56.0739 101.654 56.3295C101.2 56.5852 100.839 56.9602 100.572 57.4545C100.311 57.9432 100.18 58.5341 100.18 59.2273ZM111.724 67V49.5455H114.272V56.0312H114.426C114.573 55.7585 114.786 55.4432 115.065 55.0852C115.343 54.7273 115.73 54.4148 116.224 54.1477C116.718 53.875 117.372 53.7386 118.184 53.7386C119.241 53.7386 120.184 54.0057 121.014 54.5398C121.843 55.0739 122.494 55.8437 122.965 56.8494C123.443 57.8551 123.681 59.0653 123.681 60.4801C123.681 61.8949 123.446 63.108 122.974 64.1193C122.502 65.125 121.855 65.9006 121.031 66.446C120.207 66.9858 119.267 67.2557 118.21 67.2557C117.414 67.2557 116.764 67.1222 116.258 66.8551C115.758 66.5881 115.366 66.2756 115.082 65.9176C114.798 65.5597 114.579 65.2415 114.426 64.9631H114.213V67H111.724ZM114.221 60.4545C114.221 61.375 114.355 62.1818 114.622 62.875C114.889 63.5682 115.275 64.1108 115.781 64.5028C116.286 64.8892 116.906 65.0824 117.639 65.0824C118.4 65.0824 119.036 64.8807 119.548 64.4773C120.059 64.0682 120.446 63.5142 120.707 62.8153C120.974 62.1165 121.107 61.3295 121.107 60.4545C121.107 59.5909 120.977 58.8153 120.715 58.1278C120.46 57.4403 120.073 56.8977 119.556 56.5C119.045 56.1023 118.406 55.9034 117.639 55.9034C116.9 55.9034 116.275 56.0937 115.764 56.4744C115.258 56.8551 114.874 57.3864 114.613 58.0682C114.352 58.75 114.221 59.5455 114.221 60.4545ZM131.601 67.2642C130.374 67.2642 129.303 66.983 128.388 66.4205C127.473 65.858 126.763 65.071 126.257 64.0597C125.752 63.0483 125.499 61.8665 125.499 60.5142C125.499 59.1562 125.752 57.9687 126.257 56.9517C126.763 55.9347 127.473 55.1449 128.388 54.5824C129.303 54.0199 130.374 53.7386 131.601 53.7386C132.828 53.7386 133.899 54.0199 134.814 54.5824C135.729 55.1449 136.439 55.9347 136.945 56.9517C137.45 57.9687 137.703 59.1562 137.703 60.5142C137.703 61.8665 137.45 63.0483 136.945 64.0597C136.439 65.071 135.729 65.858 134.814 66.4205C133.899 66.983 132.828 67.2642 131.601 67.2642ZM131.61 65.125C132.405 65.125 133.064 64.9148 133.587 64.4943C134.11 64.0739 134.496 63.5142 134.746 62.8153C135.002 62.1165 135.129 61.3466 135.129 60.5057C135.129 59.6705 135.002 58.9034 134.746 58.2045C134.496 57.5 134.11 56.9347 133.587 56.5085C133.064 56.0824 132.405 55.8693 131.61 55.8693C130.808 55.8693 130.144 56.0824 129.615 56.5085C129.092 56.9347 128.703 57.5 128.448 58.2045C128.198 58.9034 128.073 59.6705 128.073 60.5057C128.073 61.3466 128.198 62.1165 128.448 62.8153C128.703 63.5142 129.092 64.0739 129.615 64.4943C130.144 64.9148 130.808 65.125 131.61 65.125ZM143.901 67.2898C143.072 67.2898 142.322 67.1364 141.651 66.8295C140.981 66.517 140.45 66.0653 140.058 65.4744C139.671 64.8835 139.478 64.1591 139.478 63.3011C139.478 62.5625 139.62 61.9545 139.904 61.4773C140.188 61 140.572 60.6222 141.055 60.3438C141.538 60.0653 142.078 59.8551 142.674 59.7131C143.271 59.571 143.879 59.4631 144.498 59.3892C145.282 59.2983 145.918 59.2244 146.407 59.1676C146.896 59.1051 147.251 59.0057 147.472 58.8693C147.694 58.733 147.805 58.5114 147.805 58.2045V58.1449C147.805 57.4006 147.595 56.8239 147.174 56.4148C146.759 56.0057 146.14 55.8011 145.316 55.8011C144.458 55.8011 143.782 55.9915 143.288 56.3722C142.799 56.7472 142.461 57.1648 142.274 57.625L139.879 57.0795C140.163 56.2841 140.578 55.642 141.123 55.1534C141.674 54.6591 142.308 54.3011 143.024 54.0795C143.739 53.8523 144.492 53.7386 145.282 53.7386C145.805 53.7386 146.359 53.8011 146.944 53.9261C147.535 54.0455 148.086 54.267 148.597 54.5909C149.114 54.9148 149.538 55.3778 149.867 55.9801C150.197 56.5767 150.362 57.3523 150.362 58.3068V67H147.873V65.2102H147.771C147.606 65.5398 147.359 65.8636 147.029 66.1818C146.7 66.5 146.276 66.7642 145.759 66.9744C145.242 67.1847 144.623 67.2898 143.901 67.2898ZM144.455 65.2443C145.16 65.2443 145.762 65.1051 146.262 64.8267C146.768 64.5483 147.151 64.1847 147.413 63.7358C147.68 63.2812 147.813 62.7955 147.813 62.2784V60.5909C147.722 60.6818 147.546 60.767 147.285 60.8466C147.029 60.9205 146.737 60.9858 146.407 61.0426C146.078 61.0937 145.757 61.142 145.444 61.1875C145.132 61.2273 144.87 61.2614 144.66 61.2898C144.166 61.3523 143.714 61.4574 143.305 61.6051C142.901 61.7528 142.578 61.9659 142.333 62.2443C142.095 62.517 141.975 62.8807 141.975 63.3352C141.975 63.9659 142.208 64.4432 142.674 64.767C143.14 65.0852 143.734 65.2443 144.455 65.2443ZM153.3 67V53.9091H155.763V55.9886H155.899C156.138 55.2841 156.558 54.7301 157.161 54.3267C157.769 53.9176 158.456 53.7131 159.223 53.7131C159.382 53.7131 159.57 53.7187 159.786 53.7301C160.007 53.7415 160.181 53.7557 160.306 53.7727V56.2102C160.203 56.1818 160.021 56.1506 159.76 56.1165C159.499 56.0767 159.237 56.0568 158.976 56.0568C158.374 56.0568 157.837 56.1847 157.365 56.4403C156.899 56.6903 156.53 57.0398 156.257 57.4886C155.984 57.9318 155.848 58.4375 155.848 59.0057V67H153.3ZM166.487 67.2557C165.43 67.2557 164.487 66.9858 163.657 66.446C162.833 65.9006 162.185 65.125 161.714 64.1193C161.248 63.108 161.015 61.8949 161.015 60.4801C161.015 59.0653 161.251 57.8551 161.722 56.8494C162.2 55.8437 162.853 55.0739 163.683 54.5398C164.512 54.0057 165.452 53.7386 166.504 53.7386C167.316 53.7386 167.97 53.875 168.464 54.1477C168.964 54.4148 169.35 54.7273 169.623 55.0852C169.901 55.4432 170.117 55.7585 170.271 56.0312H170.424V49.5455H172.972V67H170.484V64.9631H170.271C170.117 65.2415 169.896 65.5597 169.606 65.9176C169.322 66.2756 168.93 66.5881 168.43 66.8551C167.93 67.1222 167.282 67.2557 166.487 67.2557ZM167.049 65.0824C167.782 65.0824 168.401 64.8892 168.907 64.5028C169.418 64.1108 169.805 63.5682 170.066 62.875C170.333 62.1818 170.467 61.375 170.467 60.4545C170.467 59.5455 170.336 58.75 170.075 58.0682C169.813 57.3864 169.43 56.8551 168.924 56.4744C168.418 56.0937 167.793 55.9034 167.049 55.9034C166.282 55.9034 165.643 56.1023 165.131 56.5C164.62 56.8977 164.234 57.4403 163.972 58.1278C163.717 58.8153 163.589 59.5909 163.589 60.4545C163.589 61.3295 163.72 62.1165 163.981 62.8153C164.242 63.5142 164.629 64.0682 165.14 64.4773C165.657 64.8807 166.293 65.0824 167.049 65.0824ZM176.153 67V53.9091H178.702V67H176.153ZM177.44 51.8892C176.997 51.8892 176.617 51.7415 176.298 51.446C175.986 51.1449 175.83 50.7869 175.83 50.3722C175.83 49.9517 175.986 49.5937 176.298 49.2983C176.617 48.9972 176.997 48.8466 177.44 48.8466C177.884 48.8466 178.261 48.9972 178.574 49.2983C178.892 49.5937 179.051 49.9517 179.051 50.3722C179.051 50.7869 178.892 51.1449 178.574 51.446C178.261 51.7415 177.884 51.8892 177.44 51.8892ZM184.222 59.2273V67H181.674V53.9091H184.12V56.0398H184.282C184.583 55.3466 185.055 54.7898 185.697 54.3693C186.344 53.9489 187.16 53.7386 188.143 53.7386C189.035 53.7386 189.816 53.9261 190.487 54.3011C191.157 54.6705 191.677 55.2216 192.046 55.9545C192.415 56.6875 192.6 57.5937 192.6 58.6733V67H190.052V58.9801C190.052 58.0312 189.805 57.2898 189.31 56.7557C188.816 56.2159 188.137 55.946 187.273 55.946C186.683 55.946 186.157 56.0739 185.697 56.3295C185.242 56.5852 184.881 56.9602 184.614 57.4545C184.353 57.9432 184.222 58.5341 184.222 59.2273ZM201.05 72.1818C200.011 72.1818 199.116 72.0455 198.366 71.7727C197.621 71.5 197.013 71.1392 196.542 70.6903C196.07 70.2415 195.718 69.75 195.485 69.2159L197.675 68.3125C197.829 68.5625 198.033 68.8267 198.289 69.1051C198.55 69.3892 198.903 69.6307 199.346 69.8295C199.795 70.0284 200.371 70.1278 201.076 70.1278C202.042 70.1278 202.84 69.892 203.471 69.4205C204.102 68.9545 204.417 68.2102 204.417 67.1875V64.6136H204.255C204.102 64.892 203.88 65.2017 203.59 65.5426C203.306 65.8835 202.914 66.179 202.414 66.429C201.914 66.679 201.263 66.804 200.462 66.804C199.428 66.804 198.496 66.5625 197.667 66.0795C196.843 65.5909 196.19 64.8722 195.707 63.9233C195.229 62.9687 194.991 61.7955 194.991 60.4034C194.991 59.0114 195.227 57.8182 195.698 56.8239C196.175 55.8295 196.829 55.0682 197.658 54.5398C198.488 54.0057 199.428 53.7386 200.479 53.7386C201.292 53.7386 201.948 53.875 202.448 54.1477C202.948 54.4148 203.337 54.7273 203.616 55.0852C203.9 55.4432 204.119 55.7585 204.272 56.0312H204.459V53.9091H206.957V67.2898C206.957 68.4148 206.695 69.3381 206.173 70.0597C205.65 70.7813 204.942 71.3153 204.05 71.6619C203.164 72.0085 202.164 72.1818 201.05 72.1818ZM201.025 64.6903C201.758 64.6903 202.377 64.5199 202.883 64.179C203.394 63.8324 203.781 63.3381 204.042 62.696C204.309 62.0483 204.442 61.2727 204.442 60.3693C204.442 59.4886 204.312 58.7131 204.05 58.0426C203.789 57.3722 203.406 56.8494 202.9 56.4744C202.394 56.0937 201.769 55.9034 201.025 55.9034C200.258 55.9034 199.619 56.1023 199.107 56.5C198.596 56.892 198.209 57.4261 197.948 58.1023C197.692 58.7784 197.565 59.5341 197.565 60.3693C197.565 61.2273 197.695 61.9801 197.957 62.6278C198.218 63.2756 198.604 63.7812 199.116 64.1449C199.633 64.5085 200.269 64.6903 201.025 64.6903ZM220.714 67.2557C219.658 67.2557 218.714 66.9858 217.885 66.446C217.061 65.9006 216.413 65.125 215.942 64.1193C215.476 63.108 215.243 61.8949 215.243 60.4801C215.243 59.0653 215.479 57.8551 215.95 56.8494C216.427 55.8437 217.081 55.0739 217.91 54.5398C218.74 54.0057 219.68 53.7386 220.731 53.7386C221.544 53.7386 222.197 53.875 222.692 54.1477C223.192 54.4148 223.578 54.7273 223.851 55.0852C224.129 55.4432 224.345 55.7585 224.498 56.0312H224.652V49.5455H227.2V67H224.712V64.9631H224.498C224.345 65.2415 224.123 65.5597 223.834 65.9176C223.55 66.2756 223.158 66.5881 222.658 66.8551C222.158 67.1222 221.51 67.2557 220.714 67.2557ZM221.277 65.0824C222.01 65.0824 222.629 64.8892 223.135 64.5028C223.646 64.1108 224.033 63.5682 224.294 62.875C224.561 62.1818 224.694 61.375 224.694 60.4545C224.694 59.5455 224.564 58.75 224.302 58.0682C224.041 57.3864 223.658 56.8551 223.152 56.4744C222.646 56.0937 222.021 55.9034 221.277 55.9034C220.51 55.9034 219.871 56.1023 219.359 56.5C218.848 56.8977 218.462 57.4403 218.2 58.1278C217.944 58.8153 217.817 59.5909 217.817 60.4545C217.817 61.3295 217.947 62.1165 218.209 62.8153C218.47 63.5142 218.856 64.0682 219.368 64.4773C219.885 64.8807 220.521 65.0824 221.277 65.0824ZM235.895 67.2642C234.668 67.2642 233.597 66.983 232.682 66.4205C231.768 65.858 231.057 65.071 230.552 64.0597C230.046 63.0483 229.793 61.8665 229.793 60.5142C229.793 59.1562 230.046 57.9687 230.552 56.9517C231.057 55.9347 231.768 55.1449 232.682 54.5824C233.597 54.0199 234.668 53.7386 235.895 53.7386C237.123 53.7386 238.194 54.0199 239.109 54.5824C240.023 55.1449 240.734 55.9347 241.239 56.9517C241.745 57.9687 241.998 59.1562 241.998 60.5142C241.998 61.8665 241.745 63.0483 241.239 64.0597C240.734 65.071 240.023 65.858 239.109 66.4205C238.194 66.983 237.123 67.2642 235.895 67.2642ZM235.904 65.125C236.699 65.125 237.359 64.9148 237.881 64.4943C238.404 64.0739 238.79 63.5142 239.04 62.8153C239.296 62.1165 239.424 61.3466 239.424 60.5057C239.424 59.6705 239.296 58.9034 239.04 58.2045C238.79 57.5 238.404 56.9347 237.881 56.5085C237.359 56.0824 236.699 55.8693 235.904 55.8693C235.103 55.8693 234.438 56.0824 233.91 56.5085C233.387 56.9347 232.998 57.5 232.742 58.2045C232.492 58.9034 232.367 59.6705 232.367 60.5057C232.367 61.3466 232.492 62.1165 232.742 62.8153C232.998 63.5142 233.387 64.0739 233.91 64.4943C234.438 64.9148 235.103 65.125 235.904 65.125ZM250.486 67V49.5455H253.035V56.0312H253.188C253.336 55.7585 253.549 55.4432 253.827 55.0852C254.106 54.7273 254.492 54.4148 254.986 54.1477C255.481 53.875 256.134 53.7386 256.947 53.7386C258.003 53.7386 258.947 54.0057 259.776 54.5398C260.606 55.0739 261.256 55.8437 261.728 56.8494C262.205 57.8551 262.444 59.0653 262.444 60.4801C262.444 61.8949 262.208 63.108 261.736 64.1193C261.265 65.125 260.617 65.9006 259.793 66.446C258.969 66.9858 258.029 67.2557 256.972 67.2557C256.177 67.2557 255.526 67.1222 255.02 66.8551C254.52 66.5881 254.128 66.2756 253.844 65.9176C253.56 65.5597 253.341 65.2415 253.188 64.9631H252.975V67H250.486ZM252.983 60.4545C252.983 61.375 253.117 62.1818 253.384 62.875C253.651 63.5682 254.037 64.1108 254.543 64.5028C255.049 64.8892 255.668 65.0824 256.401 65.0824C257.162 65.0824 257.799 64.8807 258.31 64.4773C258.822 64.0682 259.208 63.5142 259.469 62.8153C259.736 62.1165 259.87 61.3295 259.87 60.4545C259.87 59.5909 259.739 58.8153 259.478 58.1278C259.222 57.4403 258.836 56.8977 258.319 56.5C257.807 56.1023 257.168 55.9034 256.401 55.9034C255.662 55.9034 255.037 56.0937 254.526 56.4744C254.02 56.8551 253.637 57.3864 253.376 58.0682C253.114 58.75 252.983 59.5455 252.983 60.4545ZM270.363 67.2642C269.136 67.2642 268.065 66.983 267.15 66.4205C266.236 65.858 265.525 65.071 265.02 64.0597C264.514 63.0483 264.261 61.8665 264.261 60.5142C264.261 59.1562 264.514 57.9687 265.02 56.9517C265.525 55.9347 266.236 55.1449 267.15 54.5824C268.065 54.0199 269.136 53.7386 270.363 53.7386C271.591 53.7386 272.662 54.0199 273.576 54.5824C274.491 55.1449 275.201 55.9347 275.707 56.9517C276.213 57.9687 276.466 59.1562 276.466 60.5142C276.466 61.8665 276.213 63.0483 275.707 64.0597C275.201 65.071 274.491 65.858 273.576 66.4205C272.662 66.983 271.591 67.2642 270.363 67.2642ZM270.372 65.125C271.167 65.125 271.826 64.9148 272.349 64.4943C272.872 64.0739 273.258 63.5142 273.508 62.8153C273.764 62.1165 273.892 61.3466 273.892 60.5057C273.892 59.6705 273.764 58.9034 273.508 58.2045C273.258 57.5 272.872 56.9347 272.349 56.5085C271.826 56.0824 271.167 55.8693 270.372 55.8693C269.571 55.8693 268.906 56.0824 268.378 56.5085C267.855 56.9347 267.466 57.5 267.21 58.2045C266.96 58.9034 266.835 59.6705 266.835 60.5057C266.835 61.3466 266.96 62.1165 267.21 62.8153C267.466 63.5142 267.855 64.0739 268.378 64.4943C268.906 64.9148 269.571 65.125 270.372 65.125ZM284.965 53.9091V55.9545H277.814V53.9091H284.965ZM279.732 50.7727H282.28V63.1562C282.28 63.6506 282.354 64.0227 282.502 64.2727C282.65 64.517 282.84 64.6847 283.073 64.7756C283.312 64.8608 283.57 64.9034 283.848 64.9034C284.053 64.9034 284.232 64.8892 284.385 64.8608C284.539 64.8324 284.658 64.8097 284.743 64.7926L285.204 66.8977C285.056 66.9545 284.846 67.0114 284.573 67.0682C284.3 67.1307 283.959 67.1648 283.55 67.1705C282.88 67.1818 282.255 67.0625 281.675 66.8125C281.096 66.5625 280.627 66.1761 280.269 65.6534C279.911 65.1307 279.732 64.4744 279.732 63.6847V50.7727ZM118.747 122.273C118.747 124.136 118.406 125.739 117.724 127.08C117.042 128.415 116.107 129.443 114.92 130.165C113.738 130.881 112.394 131.239 110.889 131.239C109.377 131.239 108.028 130.881 106.84 130.165C105.659 129.443 104.727 128.412 104.045 127.071C103.363 125.73 103.022 124.131 103.022 122.273C103.022 120.409 103.363 118.81 104.045 117.474C104.727 116.134 105.659 115.105 106.84 114.389C108.028 113.668 109.377 113.307 110.889 113.307C112.394 113.307 113.738 113.668 114.92 114.389C116.107 115.105 117.042 116.134 117.724 117.474C118.406 118.81 118.747 120.409 118.747 122.273ZM116.139 122.273C116.139 120.852 115.909 119.656 115.448 118.685C114.994 117.707 114.369 116.969 113.573 116.469C112.784 115.963 111.889 115.71 110.889 115.71C109.883 115.71 108.985 115.963 108.196 116.469C107.406 116.969 106.781 117.707 106.321 118.685C105.866 119.656 105.639 120.852 105.639 122.273C105.639 123.693 105.866 124.892 106.321 125.869C106.781 126.841 107.406 127.58 108.196 128.085C108.985 128.585 109.883 128.835 110.889 128.835C111.889 128.835 112.784 128.585 113.573 128.085C114.369 127.58 114.994 126.841 115.448 125.869C115.909 124.892 116.139 123.693 116.139 122.273ZM136.103 135.909V128.963H135.95C135.796 129.241 135.575 129.56 135.285 129.918C135.001 130.276 134.609 130.588 134.109 130.855C133.609 131.122 132.961 131.256 132.166 131.256C131.109 131.256 130.166 130.986 129.336 130.446C128.512 129.901 127.864 129.125 127.393 128.119C126.927 127.108 126.694 125.895 126.694 124.48C126.694 123.065 126.93 121.855 127.401 120.849C127.879 119.844 128.532 119.074 129.362 118.54C130.191 118.006 131.132 117.739 132.183 117.739C132.995 117.739 133.649 117.875 134.143 118.148C134.643 118.415 135.029 118.727 135.302 119.085C135.58 119.443 135.796 119.759 135.95 120.031H136.163V117.909H138.651V135.909H136.103ZM132.728 129.082C133.461 129.082 134.08 128.889 134.586 128.503C135.097 128.111 135.484 127.568 135.745 126.875C136.012 126.182 136.146 125.375 136.146 124.455C136.146 123.545 136.015 122.75 135.754 122.068C135.492 121.386 135.109 120.855 134.603 120.474C134.097 120.094 133.472 119.903 132.728 119.903C131.961 119.903 131.322 120.102 130.811 120.5C130.299 120.898 129.913 121.44 129.651 122.128C129.396 122.815 129.268 123.591 129.268 124.455C129.268 125.33 129.399 126.116 129.66 126.815C129.921 127.514 130.308 128.068 130.819 128.477C131.336 128.881 131.972 129.082 132.728 129.082ZM149.914 125.571V117.909H152.471V131H149.965V128.733H149.829C149.528 129.432 149.045 130.014 148.38 130.48C147.721 130.94 146.9 131.17 145.917 131.17C145.076 131.17 144.332 130.986 143.684 130.616C143.042 130.241 142.536 129.688 142.167 128.955C141.803 128.222 141.622 127.315 141.622 126.236V117.909H144.17V125.929C144.17 126.821 144.417 127.531 144.911 128.06C145.406 128.588 146.048 128.852 146.837 128.852C147.315 128.852 147.789 128.733 148.261 128.494C148.738 128.256 149.133 127.895 149.445 127.412C149.764 126.929 149.92 126.315 149.914 125.571ZM161.081 131.264C159.791 131.264 158.68 130.989 157.749 130.438C156.823 129.881 156.107 129.099 155.601 128.094C155.101 127.082 154.851 125.898 154.851 124.54C154.851 123.199 155.101 122.017 155.601 120.994C156.107 119.972 156.811 119.173 157.715 118.599C158.624 118.026 159.686 117.739 160.902 117.739C161.641 117.739 162.357 117.861 163.05 118.105C163.743 118.349 164.365 118.733 164.916 119.256C165.467 119.778 165.902 120.457 166.22 121.293C166.538 122.122 166.698 123.131 166.698 124.318V125.222H156.291V123.312H164.2C164.2 122.642 164.064 122.048 163.791 121.531C163.519 121.009 163.135 120.597 162.641 120.295C162.152 119.994 161.578 119.844 160.919 119.844C160.203 119.844 159.578 120.02 159.044 120.372C158.516 120.719 158.107 121.173 157.817 121.736C157.533 122.293 157.391 122.898 157.391 123.551V125.043C157.391 125.918 157.544 126.662 157.851 127.276C158.163 127.889 158.598 128.358 159.155 128.682C159.712 129 160.362 129.159 161.107 129.159C161.59 129.159 162.03 129.091 162.428 128.955C162.825 128.812 163.169 128.602 163.459 128.324C163.749 128.045 163.97 127.702 164.124 127.293L166.536 127.727C166.342 128.437 165.996 129.06 165.496 129.594C165.002 130.122 164.379 130.534 163.629 130.83C162.885 131.119 162.036 131.264 161.081 131.264ZM180.607 131.264C179.317 131.264 178.206 130.989 177.274 130.438C176.348 129.881 175.632 129.099 175.126 128.094C174.626 127.082 174.376 125.898 174.376 124.54C174.376 123.199 174.626 122.017 175.126 120.994C175.632 119.972 176.337 119.173 177.24 118.599C178.149 118.026 179.212 117.739 180.428 117.739C181.166 117.739 181.882 117.861 182.575 118.105C183.268 118.349 183.891 118.733 184.442 119.256C184.993 119.778 185.428 120.457 185.746 121.293C186.064 122.122 186.223 123.131 186.223 124.318V125.222H175.817V123.312H183.726C183.726 122.642 183.59 122.048 183.317 121.531C183.044 121.009 182.661 120.597 182.166 120.295C181.678 119.994 181.104 119.844 180.445 119.844C179.729 119.844 179.104 120.02 178.57 120.372C178.041 120.719 177.632 121.173 177.342 121.736C177.058 122.293 176.916 122.898 176.916 123.551V125.043C176.916 125.918 177.07 126.662 177.376 127.276C177.689 127.889 178.124 128.358 178.68 128.682C179.237 129 179.888 129.159 180.632 129.159C181.115 129.159 181.555 129.091 181.953 128.955C182.351 128.812 182.695 128.602 182.984 128.324C183.274 128.045 183.496 127.702 183.649 127.293L186.061 127.727C185.868 128.437 185.521 129.06 185.021 129.594C184.527 130.122 183.905 130.534 183.155 130.83C182.411 131.119 181.561 131.264 180.607 131.264ZM179.277 116.162L181.271 112.233H183.956L181.314 116.162H179.277ZM200.004 131.264C198.777 131.264 197.706 130.983 196.791 130.42C195.876 129.858 195.166 129.071 194.66 128.06C194.155 127.048 193.902 125.866 193.902 124.514C193.902 123.156 194.155 121.969 194.66 120.952C195.166 119.935 195.876 119.145 196.791 118.582C197.706 118.02 198.777 117.739 200.004 117.739C201.231 117.739 202.303 118.02 203.217 118.582C204.132 119.145 204.842 119.935 205.348 120.952C205.854 121.969 206.106 123.156 206.106 124.514C206.106 125.866 205.854 127.048 205.348 128.06C204.842 129.071 204.132 129.858 203.217 130.42C202.303 130.983 201.231 131.264 200.004 131.264ZM200.013 129.125C200.808 129.125 201.467 128.915 201.99 128.494C202.513 128.074 202.899 127.514 203.149 126.815C203.405 126.116 203.533 125.347 203.533 124.506C203.533 123.67 203.405 122.903 203.149 122.205C202.899 121.5 202.513 120.935 201.99 120.509C201.467 120.082 200.808 119.869 200.013 119.869C199.212 119.869 198.547 120.082 198.018 120.509C197.496 120.935 197.106 121.5 196.851 122.205C196.601 122.903 196.476 123.67 196.476 124.506C196.476 125.347 196.601 126.116 196.851 126.815C197.106 127.514 197.496 128.074 198.018 128.494C198.547 128.915 199.212 129.125 200.013 129.125ZM214.595 131V113.545H217.143V120.031H217.297C217.444 119.759 217.658 119.443 217.936 119.085C218.214 118.727 218.601 118.415 219.095 118.148C219.589 117.875 220.243 117.739 221.055 117.739C222.112 117.739 223.055 118.006 223.885 118.54C224.714 119.074 225.365 119.844 225.837 120.849C226.314 121.855 226.552 123.065 226.552 124.48C226.552 125.895 226.317 127.108 225.845 128.119C225.373 129.125 224.726 129.901 223.902 130.446C223.078 130.986 222.138 131.256 221.081 131.256C220.285 131.256 219.635 131.122 219.129 130.855C218.629 130.588 218.237 130.276 217.953 129.918C217.669 129.56 217.45 129.241 217.297 128.963H217.084V131H214.595ZM217.092 124.455C217.092 125.375 217.226 126.182 217.493 126.875C217.76 127.568 218.146 128.111 218.652 128.503C219.158 128.889 219.777 129.082 220.51 129.082C221.271 129.082 221.908 128.881 222.419 128.477C222.93 128.068 223.317 127.514 223.578 126.815C223.845 126.116 223.979 125.33 223.979 124.455C223.979 123.591 223.848 122.815 223.587 122.128C223.331 121.44 222.944 120.898 222.427 120.5C221.916 120.102 221.277 119.903 220.51 119.903C219.771 119.903 219.146 120.094 218.635 120.474C218.129 120.855 217.746 121.386 217.484 122.068C217.223 122.75 217.092 123.545 217.092 124.455ZM234.472 131.264C233.245 131.264 232.174 130.983 231.259 130.42C230.344 129.858 229.634 129.071 229.128 128.06C228.623 127.048 228.37 125.866 228.37 124.514C228.37 123.156 228.623 121.969 229.128 120.952C229.634 119.935 230.344 119.145 231.259 118.582C232.174 118.02 233.245 117.739 234.472 117.739C235.699 117.739 236.77 118.02 237.685 118.582C238.6 119.145 239.31 119.935 239.816 120.952C240.322 121.969 240.574 123.156 240.574 124.514C240.574 125.866 240.322 127.048 239.816 128.06C239.31 129.071 238.6 129.858 237.685 130.42C236.77 130.983 235.699 131.264 234.472 131.264ZM234.481 129.125C235.276 129.125 235.935 128.915 236.458 128.494C236.981 128.074 237.367 127.514 237.617 126.815C237.873 126.116 238.001 125.347 238.001 124.506C238.001 123.67 237.873 122.903 237.617 122.205C237.367 121.5 236.981 120.935 236.458 120.509C235.935 120.082 235.276 119.869 234.481 119.869C233.68 119.869 233.015 120.082 232.486 120.509C231.964 120.935 231.574 121.5 231.319 122.205C231.069 122.903 230.944 123.67 230.944 124.506C230.944 125.347 231.069 126.116 231.319 126.815C231.574 127.514 231.964 128.074 232.486 128.494C233.015 128.915 233.68 129.125 234.481 129.125ZM249.074 117.909V119.955H241.923V117.909H249.074ZM243.841 114.773H246.389V127.156C246.389 127.651 246.463 128.023 246.611 128.273C246.758 128.517 246.949 128.685 247.182 128.776C247.42 128.861 247.679 128.903 247.957 128.903C248.162 128.903 248.341 128.889 248.494 128.861C248.648 128.832 248.767 128.81 248.852 128.793L249.312 130.898C249.165 130.955 248.954 131.011 248.682 131.068C248.409 131.131 248.068 131.165 247.659 131.17C246.988 131.182 246.363 131.062 245.784 130.812C245.204 130.562 244.736 130.176 244.378 129.653C244.02 129.131 243.841 128.474 243.841 127.685V114.773ZM254.224 125.98V125.818C254.235 124.761 254.34 123.92 254.539 123.295C254.743 122.67 255.033 122.165 255.408 121.778C255.783 121.392 256.235 121.04 256.763 120.722C257.104 120.506 257.411 120.264 257.684 119.997C257.956 119.73 258.172 119.423 258.331 119.077C258.491 118.73 258.57 118.347 258.57 117.926C258.57 117.42 258.451 116.983 258.212 116.614C257.974 116.244 257.655 115.96 257.258 115.761C256.866 115.557 256.428 115.455 255.945 115.455C255.508 115.455 255.09 115.545 254.692 115.727C254.295 115.909 253.965 116.193 253.704 116.58C253.442 116.96 253.292 117.452 253.252 118.054H250.661C250.701 117.031 250.959 116.168 251.437 115.463C251.914 114.753 252.545 114.216 253.329 113.852C254.118 113.489 254.991 113.307 255.945 113.307C256.991 113.307 257.905 113.503 258.689 113.895C259.474 114.281 260.081 114.824 260.513 115.523C260.951 116.216 261.17 117.026 261.17 117.952C261.17 118.588 261.07 119.162 260.871 119.673C260.672 120.179 260.388 120.631 260.019 121.028C259.655 121.426 259.218 121.778 258.706 122.085C258.224 122.386 257.831 122.699 257.53 123.023C257.235 123.347 257.019 123.73 256.883 124.173C256.746 124.616 256.672 125.165 256.661 125.818V125.98H254.224ZM255.51 131.162C255.045 131.162 254.644 130.997 254.309 130.668C253.974 130.332 253.806 129.929 253.806 129.457C253.806 128.991 253.974 128.594 254.309 128.264C254.644 127.929 255.045 127.761 255.51 127.761C255.971 127.761 256.368 127.929 256.704 128.264C257.045 128.594 257.215 128.991 257.215 129.457C257.215 129.77 257.135 130.057 256.976 130.318C256.823 130.574 256.618 130.778 256.363 130.932C256.107 131.085 255.823 131.162 255.51 131.162ZM108.562 154.273C108.562 156.136 108.221 157.739 107.539 159.08C106.857 160.415 105.923 161.443 104.735 162.165C103.554 162.881 102.21 163.239 100.704 163.239C99.1927 163.239 97.8433 162.881 96.6558 162.165C95.474 161.443 94.5422 160.412 93.8603 159.071C93.1785 157.73 92.8376 156.131 92.8376 154.273C92.8376 152.409 93.1785 150.81 93.8603 149.474C94.5422 148.134 95.474 147.105 96.6558 146.389C97.8433 145.668 99.1927 145.307 100.704 145.307C102.21 145.307 103.554 145.668 104.735 146.389C105.923 147.105 106.857 148.134 107.539 149.474C108.221 150.81 108.562 152.409 108.562 154.273ZM105.954 154.273C105.954 152.852 105.724 151.656 105.264 150.685C104.809 149.707 104.184 148.969 103.389 148.469C102.599 147.963 101.704 147.71 100.704 147.71C99.6984 147.71 98.8007 147.963 98.0109 148.469C97.2211 148.969 96.5961 149.707 96.1359 150.685C95.6814 151.656 95.4541 152.852 95.4541 154.273C95.4541 155.693 95.6814 156.892 96.1359 157.869C96.5961 158.841 97.2211 159.58 98.0109 160.085C98.8007 160.585 99.6984 160.835 100.704 160.835C101.704 160.835 102.599 160.585 103.389 160.085C104.184 159.58 104.809 158.841 105.264 157.869C105.724 156.892 105.954 155.693 105.954 154.273ZM125.919 167.909V160.963H125.765C125.612 161.241 125.39 161.56 125.1 161.918C124.816 162.276 124.424 162.588 123.924 162.855C123.424 163.122 122.776 163.256 121.981 163.256C120.924 163.256 119.981 162.986 119.151 162.446C118.328 161.901 117.68 161.125 117.208 160.119C116.742 159.108 116.509 157.895 116.509 156.48C116.509 155.065 116.745 153.855 117.217 152.849C117.694 151.844 118.347 151.074 119.177 150.54C120.007 150.006 120.947 149.739 121.998 149.739C122.811 149.739 123.464 149.875 123.958 150.148C124.458 150.415 124.845 150.727 125.117 151.085C125.396 151.443 125.612 151.759 125.765 152.031H125.978V149.909H128.467V167.909H125.919ZM122.544 161.082C123.276 161.082 123.896 160.889 124.401 160.503C124.913 160.111 125.299 159.568 125.561 158.875C125.828 158.182 125.961 157.375 125.961 156.455C125.961 155.545 125.83 154.75 125.569 154.068C125.308 153.386 124.924 152.855 124.419 152.474C123.913 152.094 123.288 151.903 122.544 151.903C121.776 151.903 121.137 152.102 120.626 152.5C120.115 152.898 119.728 153.44 119.467 154.128C119.211 154.815 119.083 155.591 119.083 156.455C119.083 157.33 119.214 158.116 119.475 158.815C119.737 159.514 120.123 160.068 120.634 160.477C121.151 160.881 121.788 161.082 122.544 161.082ZM139.73 157.571V149.909H142.286V163H139.781V160.733H139.644C139.343 161.432 138.86 162.014 138.195 162.48C137.536 162.94 136.715 163.17 135.732 163.17C134.891 163.17 134.147 162.986 133.499 162.616C132.857 162.241 132.352 161.688 131.982 160.955C131.619 160.222 131.437 159.315 131.437 158.236V149.909H133.985V157.929C133.985 158.821 134.232 159.531 134.727 160.06C135.221 160.588 135.863 160.852 136.653 160.852C137.13 160.852 137.605 160.733 138.076 160.494C138.553 160.256 138.948 159.895 139.261 159.412C139.579 158.929 139.735 158.315 139.73 157.571ZM150.896 163.264C149.607 163.264 148.496 162.989 147.564 162.438C146.638 161.881 145.922 161.099 145.416 160.094C144.916 159.082 144.666 157.898 144.666 156.54C144.666 155.199 144.916 154.017 145.416 152.994C145.922 151.972 146.627 151.173 147.53 150.599C148.439 150.026 149.502 149.739 150.717 149.739C151.456 149.739 152.172 149.861 152.865 150.105C153.558 150.349 154.181 150.733 154.732 151.256C155.283 151.778 155.717 152.457 156.036 153.293C156.354 154.122 156.513 155.131 156.513 156.318V157.222H146.107V155.312H154.016C154.016 154.642 153.879 154.048 153.607 153.531C153.334 153.009 152.95 152.597 152.456 152.295C151.967 151.994 151.394 151.844 150.734 151.844C150.019 151.844 149.394 152.02 148.859 152.372C148.331 152.719 147.922 153.173 147.632 153.736C147.348 154.293 147.206 154.898 147.206 155.551V157.043C147.206 157.918 147.359 158.662 147.666 159.276C147.979 159.889 148.413 160.358 148.97 160.682C149.527 161 150.178 161.159 150.922 161.159C151.405 161.159 151.845 161.091 152.243 160.955C152.641 160.812 152.984 160.602 153.274 160.324C153.564 160.045 153.786 159.702 153.939 159.293L156.351 159.727C156.158 160.437 155.811 161.06 155.311 161.594C154.817 162.122 154.195 162.534 153.445 162.83C152.7 163.119 151.851 163.264 150.896 163.264ZM170.294 163.264C169.067 163.264 167.996 162.983 167.081 162.42C166.166 161.858 165.456 161.071 164.95 160.06C164.445 159.048 164.192 157.866 164.192 156.514C164.192 155.156 164.445 153.969 164.95 152.952C165.456 151.935 166.166 151.145 167.081 150.582C167.996 150.02 169.067 149.739 170.294 149.739C171.521 149.739 172.592 150.02 173.507 150.582C174.422 151.145 175.132 151.935 175.638 152.952C176.144 153.969 176.396 155.156 176.396 156.514C176.396 157.866 176.144 159.048 175.638 160.06C175.132 161.071 174.422 161.858 173.507 162.42C172.592 162.983 171.521 163.264 170.294 163.264ZM170.303 161.125C171.098 161.125 171.757 160.915 172.28 160.494C172.803 160.074 173.189 159.514 173.439 158.815C173.695 158.116 173.822 157.347 173.822 156.506C173.822 155.67 173.695 154.903 173.439 154.205C173.189 153.5 172.803 152.935 172.28 152.509C171.757 152.082 171.098 151.869 170.303 151.869C169.501 151.869 168.837 152.082 168.308 152.509C167.786 152.935 167.396 153.5 167.141 154.205C166.891 154.903 166.766 155.67 166.766 156.506C166.766 157.347 166.891 158.116 167.141 158.815C167.396 159.514 167.786 160.074 168.308 160.494C168.837 160.915 169.501 161.125 170.303 161.125ZM184.885 163V145.545H187.433V152.031H187.587C187.734 151.759 187.947 151.443 188.226 151.085C188.504 150.727 188.891 150.415 189.385 150.148C189.879 149.875 190.533 149.739 191.345 149.739C192.402 149.739 193.345 150.006 194.175 150.54C195.004 151.074 195.655 151.844 196.126 152.849C196.604 153.855 196.842 155.065 196.842 156.48C196.842 157.895 196.607 159.108 196.135 160.119C195.663 161.125 195.016 161.901 194.192 162.446C193.368 162.986 192.428 163.256 191.371 163.256C190.575 163.256 189.925 163.122 189.419 162.855C188.919 162.588 188.527 162.276 188.243 161.918C187.959 161.56 187.74 161.241 187.587 160.963H187.374V163H184.885ZM187.382 156.455C187.382 157.375 187.516 158.182 187.783 158.875C188.05 159.568 188.436 160.111 188.942 160.503C189.447 160.889 190.067 161.082 190.8 161.082C191.561 161.082 192.197 160.881 192.709 160.477C193.22 160.068 193.607 159.514 193.868 158.815C194.135 158.116 194.268 157.33 194.268 156.455C194.268 155.591 194.138 154.815 193.876 154.128C193.621 153.44 193.234 152.898 192.717 152.5C192.206 152.102 191.567 151.903 190.8 151.903C190.061 151.903 189.436 152.094 188.925 152.474C188.419 152.855 188.035 153.386 187.774 154.068C187.513 154.75 187.382 155.545 187.382 156.455ZM204.762 163.264C203.535 163.264 202.464 162.983 201.549 162.42C200.634 161.858 199.924 161.071 199.418 160.06C198.913 159.048 198.66 157.866 198.66 156.514C198.66 155.156 198.913 153.969 199.418 152.952C199.924 151.935 200.634 151.145 201.549 150.582C202.464 150.02 203.535 149.739 204.762 149.739C205.989 149.739 207.06 150.02 207.975 150.582C208.89 151.145 209.6 151.935 210.106 152.952C210.611 153.969 210.864 155.156 210.864 156.514C210.864 157.866 210.611 159.048 210.106 160.06C209.6 161.071 208.89 161.858 207.975 162.42C207.06 162.983 205.989 163.264 204.762 163.264ZM204.771 161.125C205.566 161.125 206.225 160.915 206.748 160.494C207.271 160.074 207.657 159.514 207.907 158.815C208.163 158.116 208.29 157.347 208.29 156.506C208.29 155.67 208.163 154.903 207.907 154.205C207.657 153.5 207.271 152.935 206.748 152.509C206.225 152.082 205.566 151.869 204.771 151.869C203.969 151.869 203.305 152.082 202.776 152.509C202.254 152.935 201.864 153.5 201.609 154.205C201.359 154.903 201.234 155.67 201.234 156.506C201.234 157.347 201.359 158.116 201.609 158.815C201.864 159.514 202.254 160.074 202.776 160.494C203.305 160.915 203.969 161.125 204.771 161.125ZM219.364 149.909V151.955H212.213V149.909H219.364ZM214.131 146.773H216.679V159.156C216.679 159.651 216.753 160.023 216.9 160.273C217.048 160.517 217.239 160.685 217.472 160.776C217.71 160.861 217.969 160.903 218.247 160.903C218.452 160.903 218.631 160.889 218.784 160.861C218.937 160.832 219.057 160.81 219.142 160.793L219.602 162.898C219.454 162.955 219.244 163.011 218.972 163.068C218.699 163.131 218.358 163.165 217.949 163.17C217.278 163.182 216.653 163.062 216.074 162.812C215.494 162.562 215.025 162.176 214.668 161.653C214.31 161.131 214.131 160.474 214.131 159.685V146.773ZM233.852 149.909V151.955H226.454V149.909H233.852ZM228.483 163V148.392C228.483 147.574 228.662 146.895 229.02 146.355C229.378 145.81 229.852 145.403 230.443 145.136C231.034 144.864 231.676 144.727 232.369 144.727C232.881 144.727 233.318 144.77 233.682 144.855C234.045 144.935 234.315 145.009 234.491 145.077L233.895 147.139C233.775 147.105 233.622 147.065 233.435 147.02C233.247 146.969 233.02 146.943 232.753 146.943C232.133 146.943 231.69 147.097 231.423 147.403C231.162 147.71 231.031 148.153 231.031 148.733V163H228.483ZM239.437 163.29C238.607 163.29 237.857 163.136 237.187 162.83C236.516 162.517 235.985 162.065 235.593 161.474C235.206 160.884 235.013 160.159 235.013 159.301C235.013 158.562 235.155 157.955 235.439 157.477C235.724 157 236.107 156.622 236.59 156.344C237.073 156.065 237.613 155.855 238.209 155.713C238.806 155.571 239.414 155.463 240.033 155.389C240.817 155.298 241.454 155.224 241.942 155.168C242.431 155.105 242.786 155.006 243.008 154.869C243.229 154.733 243.34 154.511 243.34 154.205V154.145C243.34 153.401 243.13 152.824 242.709 152.415C242.295 152.006 241.675 151.801 240.851 151.801C239.993 151.801 239.317 151.991 238.823 152.372C238.334 152.747 237.996 153.165 237.809 153.625L235.414 153.08C235.698 152.284 236.113 151.642 236.658 151.153C237.209 150.659 237.843 150.301 238.559 150.08C239.275 149.852 240.028 149.739 240.817 149.739C241.34 149.739 241.894 149.801 242.479 149.926C243.07 150.045 243.621 150.267 244.133 150.591C244.65 150.915 245.073 151.378 245.403 151.98C245.732 152.577 245.897 153.352 245.897 154.307V163H243.408V161.21H243.306C243.141 161.54 242.894 161.864 242.564 162.182C242.235 162.5 241.812 162.764 241.295 162.974C240.778 163.185 240.158 163.29 239.437 163.29ZM239.991 161.244C240.695 161.244 241.297 161.105 241.797 160.827C242.303 160.548 242.687 160.185 242.948 159.736C243.215 159.281 243.349 158.795 243.349 158.278V156.591C243.258 156.682 243.081 156.767 242.82 156.847C242.564 156.92 242.272 156.986 241.942 157.043C241.613 157.094 241.292 157.142 240.979 157.188C240.667 157.227 240.405 157.261 240.195 157.29C239.701 157.352 239.249 157.457 238.84 157.605C238.437 157.753 238.113 157.966 237.868 158.244C237.63 158.517 237.51 158.881 237.51 159.335C237.51 159.966 237.743 160.443 238.209 160.767C238.675 161.085 239.269 161.244 239.991 161.244ZM248.562 163V161.253L255.653 152.244V152.125H248.792V149.909H258.832V151.767L252.014 160.665V160.784H259.071V163H248.562ZM264.408 157.98V157.818C264.419 156.761 264.525 155.92 264.723 155.295C264.928 154.67 265.218 154.165 265.593 153.778C265.968 153.392 266.419 153.04 266.948 152.722C267.289 152.506 267.596 152.264 267.868 151.997C268.141 151.73 268.357 151.423 268.516 151.077C268.675 150.73 268.755 150.347 268.755 149.926C268.755 149.42 268.635 148.983 268.397 148.614C268.158 148.244 267.84 147.96 267.442 147.761C267.05 147.557 266.613 147.455 266.13 147.455C265.692 147.455 265.275 147.545 264.877 147.727C264.479 147.909 264.15 148.193 263.888 148.58C263.627 148.96 263.476 149.452 263.437 150.054H260.846C260.885 149.031 261.144 148.168 261.621 147.463C262.098 146.753 262.729 146.216 263.513 145.852C264.303 145.489 265.175 145.307 266.13 145.307C267.175 145.307 268.09 145.503 268.874 145.895C269.658 146.281 270.266 146.824 270.698 147.523C271.135 148.216 271.354 149.026 271.354 149.952C271.354 150.588 271.255 151.162 271.056 151.673C270.857 152.179 270.573 152.631 270.204 153.028C269.84 153.426 269.402 153.778 268.891 154.085C268.408 154.386 268.016 154.699 267.715 155.023C267.419 155.347 267.204 155.73 267.067 156.173C266.931 156.616 266.857 157.165 266.846 157.818V157.98H264.408ZM265.695 163.162C265.229 163.162 264.829 162.997 264.493 162.668C264.158 162.332 263.991 161.929 263.991 161.457C263.991 160.991 264.158 160.594 264.493 160.264C264.829 159.929 265.229 159.761 265.695 159.761C266.155 159.761 266.553 159.929 266.888 160.264C267.229 160.594 267.4 160.991 267.4 161.457C267.4 161.77 267.32 162.057 267.161 162.318C267.008 162.574 266.803 162.778 266.547 162.932C266.292 163.085 266.008 163.162 265.695 163.162Z" fill="black" fill-opacity="0.8"/>
</svg>
