<svg width="336" height="112" viewBox="0 0 336 112" fill="none" xmlns="http://www.w3.org/2000/svg">
<rect width="336" height="112" rx="56" fill="#FFD233"/>
<rect x="2" y="2" width="332" height="108" rx="54" stroke="black" stroke-opacity="0.2" stroke-width="4"/>
<path d="M124.127 52.1307C124.036 51.3239 123.661 50.6989 123.002 50.2557C122.343 49.8068 121.514 49.5824 120.514 49.5824C119.798 49.5824 119.178 49.696 118.656 49.9233C118.133 50.1449 117.727 50.4517 117.437 50.8438C117.153 51.2301 117.011 51.6705 117.011 52.1648C117.011 52.5795 117.107 52.9375 117.301 53.2386C117.499 53.5398 117.758 53.7926 118.076 53.9972C118.4 54.196 118.747 54.3636 119.116 54.5C119.485 54.6307 119.84 54.7386 120.181 54.8239L121.886 55.267C122.443 55.4034 123.014 55.5881 123.599 55.821C124.184 56.054 124.727 56.3608 125.227 56.7415C125.727 57.1222 126.13 57.5938 126.437 58.1562C126.749 58.7188 126.906 59.392 126.906 60.1761C126.906 61.1648 126.65 62.0426 126.139 62.8097C125.633 63.5767 124.897 64.1818 123.931 64.625C122.971 65.0682 121.809 65.2898 120.445 65.2898C119.139 65.2898 118.008 65.0824 117.053 64.6676C116.099 64.2528 115.352 63.6648 114.812 62.9034C114.272 62.1364 113.974 61.2273 113.917 60.1761H116.559C116.61 60.8068 116.815 61.3324 117.173 61.7528C117.536 62.1676 117.999 62.4773 118.562 62.6818C119.13 62.8807 119.752 62.9801 120.428 62.9801C121.173 62.9801 121.835 62.8636 122.414 62.6307C122.999 62.392 123.46 62.0625 123.795 61.642C124.13 61.2159 124.298 60.7187 124.298 60.1506C124.298 59.6335 124.15 59.2102 123.855 58.8807C123.565 58.5511 123.17 58.2784 122.67 58.0625C122.176 57.8466 121.616 57.6562 120.991 57.4915L118.928 56.929C117.531 56.5483 116.423 55.9886 115.605 55.25C114.792 54.5114 114.386 53.5341 114.386 52.3182C114.386 51.3125 114.659 50.4347 115.204 49.6847C115.749 48.9347 116.488 48.3523 117.42 47.9375C118.352 47.517 119.403 47.3068 120.573 47.3068C121.755 47.3068 122.798 47.5142 123.701 47.929C124.61 48.3438 125.326 48.9148 125.849 49.642C126.372 50.3636 126.644 51.1932 126.667 52.1307H124.127ZM133.202 65.2898C132.372 65.2898 131.622 65.1364 130.952 64.8295C130.281 64.517 129.75 64.0653 129.358 63.4744C128.972 62.8835 128.778 62.1591 128.778 61.3011C128.778 60.5625 128.921 59.9545 129.205 59.4773C129.489 59 129.872 58.6222 130.355 58.3438C130.838 58.0653 131.378 57.8551 131.975 57.7131C132.571 57.571 133.179 57.4631 133.798 57.3892C134.582 57.2983 135.219 57.2244 135.707 57.1676C136.196 57.1051 136.551 57.0057 136.773 56.8693C136.994 56.733 137.105 56.5114 137.105 56.2045V56.1449C137.105 55.4006 136.895 54.8239 136.475 54.4148C136.06 54.0057 135.44 53.8011 134.617 53.8011C133.759 53.8011 133.082 53.9915 132.588 54.3722C132.1 54.7472 131.761 55.1648 131.574 55.625L129.179 55.0795C129.463 54.2841 129.878 53.642 130.423 53.1534C130.975 52.6591 131.608 52.3011 132.324 52.0795C133.04 51.8523 133.793 51.7386 134.582 51.7386C135.105 51.7386 135.659 51.8011 136.244 51.9261C136.835 52.0455 137.386 52.267 137.898 52.5909C138.415 52.9148 138.838 53.3778 139.168 53.9801C139.497 54.5767 139.662 55.3523 139.662 56.3068V65H137.173V63.2102H137.071C136.906 63.5398 136.659 63.8636 136.33 64.1818C136 64.5 135.577 64.7642 135.06 64.9744C134.543 65.1847 133.923 65.2898 133.202 65.2898ZM133.756 63.2443C134.46 63.2443 135.063 63.1051 135.563 62.8267C136.068 62.5483 136.452 62.1847 136.713 61.7358C136.98 61.2812 137.114 60.7955 137.114 60.2784V58.5909C137.023 58.6818 136.847 58.767 136.585 58.8466C136.33 58.9205 136.037 58.9858 135.707 59.0426C135.378 59.0937 135.057 59.142 134.744 59.1875C134.432 59.2273 134.171 59.2614 133.96 59.2898C133.466 59.3523 133.014 59.4574 132.605 59.6051C132.202 59.7528 131.878 59.9659 131.634 60.2443C131.395 60.517 131.276 60.8807 131.276 61.3352C131.276 61.9659 131.509 62.4432 131.975 62.767C132.44 63.0852 133.034 63.2443 133.756 63.2443ZM150.893 59.571V51.9091H153.45V65H150.944V62.733H150.808C150.506 63.4318 150.023 64.0142 149.359 64.4801C148.7 64.9403 147.879 65.1705 146.896 65.1705C146.055 65.1705 145.31 64.9858 144.663 64.6165C144.021 64.2415 143.515 63.6875 143.146 62.9545C142.782 62.2216 142.6 61.3153 142.6 60.2358V51.9091H145.148V59.929C145.148 60.821 145.396 61.5312 145.89 62.0597C146.384 62.5881 147.026 62.8523 147.816 62.8523C148.293 62.8523 148.768 62.733 149.239 62.4943C149.717 62.2557 150.112 61.8949 150.424 61.4119C150.742 60.929 150.898 60.3153 150.893 59.571ZM161.318 65.2557C160.261 65.2557 159.318 64.9858 158.489 64.446C157.665 63.9006 157.017 63.125 156.545 62.1193C156.08 61.108 155.847 59.8949 155.847 58.4801C155.847 57.0653 156.082 55.8551 156.554 54.8494C157.031 53.8437 157.685 53.0739 158.514 52.5398C159.344 52.0057 160.284 51.7386 161.335 51.7386C162.148 51.7386 162.801 51.875 163.295 52.1477C163.795 52.4148 164.182 52.7273 164.455 53.0852C164.733 53.4432 164.949 53.7585 165.102 54.0312H165.256V47.5455H167.804V65H165.315V62.9631H165.102C164.949 63.2415 164.727 63.5597 164.438 63.9176C164.153 64.2756 163.761 64.5881 163.261 64.8551C162.761 65.1222 162.114 65.2557 161.318 65.2557ZM161.881 63.0824C162.614 63.0824 163.233 62.8892 163.739 62.5028C164.25 62.1108 164.636 61.5682 164.898 60.875C165.165 60.1818 165.298 59.375 165.298 58.4545C165.298 57.5455 165.168 56.75 164.906 56.0682C164.645 55.3864 164.261 54.8551 163.756 54.4744C163.25 54.0937 162.625 53.9034 161.881 53.9034C161.114 53.9034 160.474 54.1023 159.963 54.5C159.452 54.8977 159.065 55.4403 158.804 56.1278C158.548 56.8153 158.42 57.5909 158.42 58.4545C158.42 59.3295 158.551 60.1165 158.813 60.8153C159.074 61.5142 159.46 62.0682 159.972 62.4773C160.489 62.8807 161.125 63.0824 161.881 63.0824ZM174.795 65.2898C173.965 65.2898 173.215 65.1364 172.545 64.8295C171.874 64.517 171.343 64.0653 170.951 63.4744C170.565 62.8835 170.371 62.1591 170.371 61.3011C170.371 60.5625 170.513 59.9545 170.798 59.4773C171.082 59 171.465 58.6222 171.948 58.3438C172.431 58.0653 172.971 57.8551 173.567 57.7131C174.164 57.571 174.772 57.4631 175.391 57.3892C176.175 57.2983 176.812 57.2244 177.3 57.1676C177.789 57.1051 178.144 57.0057 178.366 56.8693C178.587 56.733 178.698 56.5114 178.698 56.2045V56.1449C178.698 55.4006 178.488 54.8239 178.067 54.4148C177.653 54.0057 177.033 53.8011 176.21 53.8011C175.352 53.8011 174.675 53.9915 174.181 54.3722C173.692 54.7472 173.354 55.1648 173.167 55.625L170.772 55.0795C171.056 54.2841 171.471 53.642 172.016 53.1534C172.567 52.6591 173.201 52.3011 173.917 52.0795C174.633 51.8523 175.386 51.7386 176.175 51.7386C176.698 51.7386 177.252 51.8011 177.837 51.9261C178.428 52.0455 178.979 52.267 179.491 52.5909C180.008 52.9148 180.431 53.3778 180.761 53.9801C181.09 54.5767 181.255 55.3523 181.255 56.3068V65H178.766V63.2102H178.664C178.499 63.5398 178.252 63.8636 177.923 64.1818C177.593 64.5 177.17 64.7642 176.653 64.9744C176.136 65.1847 175.516 65.2898 174.795 65.2898ZM175.349 63.2443C176.053 63.2443 176.656 63.1051 177.156 62.8267C177.661 62.5483 178.045 62.1847 178.306 61.7358C178.573 61.2812 178.707 60.7955 178.707 60.2784V58.5909C178.616 58.6818 178.44 58.767 178.178 58.8466C177.923 58.9205 177.63 58.9858 177.3 59.0426C176.971 59.0937 176.65 59.142 176.337 59.1875C176.025 59.2273 175.763 59.2614 175.553 59.2898C175.059 59.3523 174.607 59.4574 174.198 59.6051C173.795 59.7528 173.471 59.9659 173.227 60.2443C172.988 60.517 172.869 60.8807 172.869 61.3352C172.869 61.9659 173.102 62.4432 173.567 62.767C174.033 63.0852 174.627 63.2443 175.349 63.2443ZM189.707 65.2642C188.44 65.2642 187.349 64.9773 186.435 64.4034C185.526 63.8239 184.827 63.0256 184.338 62.0085C183.849 60.9915 183.605 59.8267 183.605 58.5142C183.605 57.1847 183.855 56.0114 184.355 54.9943C184.855 53.9716 185.56 53.1733 186.469 52.5994C187.378 52.0256 188.449 51.7386 189.682 51.7386C190.676 51.7386 191.562 51.9233 192.341 52.2926C193.119 52.6562 193.747 53.1676 194.224 53.8267C194.707 54.4858 194.994 55.2557 195.085 56.1364H192.605C192.469 55.5227 192.156 54.9943 191.668 54.5511C191.185 54.108 190.537 53.8864 189.724 53.8864C189.014 53.8864 188.392 54.0739 187.858 54.4489C187.33 54.8182 186.918 55.3466 186.622 56.0341C186.327 56.7159 186.179 57.5227 186.179 58.4545C186.179 59.4091 186.324 60.233 186.614 60.9261C186.903 61.6193 187.312 62.1562 187.841 62.5369C188.375 62.9176 189.003 63.108 189.724 63.108C190.207 63.108 190.645 63.0199 191.037 62.8438C191.435 62.6619 191.767 62.4034 192.034 62.0682C192.307 61.733 192.497 61.3295 192.605 60.858H195.085C194.994 61.7045 194.719 62.4602 194.258 63.125C193.798 63.7898 193.182 64.3125 192.409 64.6932C191.642 65.0739 190.741 65.2642 189.707 65.2642ZM188.787 64.9318H190.457L190.321 65.6307C190.815 65.7102 191.247 65.9091 191.616 66.2273C191.986 66.5455 192.17 67.0256 192.17 67.6676C192.176 68.4347 191.844 69.0568 191.173 69.5341C190.508 70.0114 189.545 70.25 188.284 70.25L188.233 68.8267C188.824 68.8267 189.301 68.7415 189.665 68.571C190.034 68.4006 190.222 68.125 190.227 67.7443C190.233 67.3636 190.091 67.0966 189.801 66.9432C189.517 66.7898 189.062 66.6818 188.437 66.6193L188.787 64.9318ZM201.164 65.2898C200.334 65.2898 199.584 65.1364 198.914 64.8295C198.244 64.517 197.712 64.0653 197.32 63.4744C196.934 62.8835 196.741 62.1591 196.741 61.3011C196.741 60.5625 196.883 59.9545 197.167 59.4773C197.451 59 197.834 58.6222 198.317 58.3438C198.8 58.0653 199.34 57.8551 199.937 57.7131C200.533 57.571 201.141 57.4631 201.761 57.3892C202.545 57.2983 203.181 57.2244 203.67 57.1676C204.158 57.1051 204.513 57.0057 204.735 56.8693C204.957 56.733 205.067 56.5114 205.067 56.2045V56.1449C205.067 55.4006 204.857 54.8239 204.437 54.4148C204.022 54.0057 203.403 53.8011 202.579 53.8011C201.721 53.8011 201.045 53.9915 200.55 54.3722C200.062 54.7472 199.724 55.1648 199.536 55.625L197.141 55.0795C197.425 54.2841 197.84 53.642 198.386 53.1534C198.937 52.6591 199.57 52.3011 200.286 52.0795C201.002 51.8523 201.755 51.7386 202.545 51.7386C203.067 51.7386 203.621 51.8011 204.207 51.9261C204.798 52.0455 205.349 52.267 205.86 52.5909C206.377 52.9148 206.8 53.3778 207.13 53.9801C207.459 54.5767 207.624 55.3523 207.624 56.3068V65H205.136V63.2102H205.033C204.869 63.5398 204.621 63.8636 204.292 64.1818C203.962 64.5 203.539 64.7642 203.022 64.9744C202.505 65.1847 201.886 65.2898 201.164 65.2898ZM201.718 63.2443C202.423 63.2443 203.025 63.1051 203.525 62.8267C204.03 62.5483 204.414 62.1847 204.675 61.7358C204.942 61.2812 205.076 60.7955 205.076 60.2784V58.5909C204.985 58.6818 204.809 58.767 204.548 58.8466C204.292 58.9205 203.999 58.9858 203.67 59.0426C203.34 59.0937 203.019 59.142 202.707 59.1875C202.394 59.2273 202.133 59.2614 201.923 59.2898C201.428 59.3523 200.976 59.4574 200.567 59.6051C200.164 59.7528 199.84 59.9659 199.596 60.2443C199.357 60.517 199.238 60.8807 199.238 61.3352C199.238 61.9659 199.471 62.4432 199.937 62.767C200.403 63.0852 200.996 63.2443 201.718 63.2443ZM200.116 50.3239L198.403 50.2727C198.403 49.3295 198.655 48.5767 199.161 48.0142C199.673 47.4517 200.303 47.1705 201.053 47.1705C201.4 47.1705 201.704 47.2301 201.965 47.3494C202.226 47.4631 202.471 47.5966 202.698 47.75C202.931 47.8977 203.161 48.0312 203.388 48.1506C203.621 48.2642 203.88 48.321 204.164 48.321C204.494 48.321 204.761 48.196 204.965 47.946C205.175 47.696 205.28 47.3864 205.28 47.017L206.959 47.1278C206.959 48.0767 206.704 48.8239 206.192 49.3693C205.681 49.9091 205.053 50.1818 204.309 50.1875C203.905 50.1875 203.57 50.1307 203.303 50.017C203.042 49.8977 202.809 49.7642 202.604 49.6165C202.4 49.4631 202.19 49.3267 201.974 49.2074C201.758 49.0881 201.499 49.0284 201.198 49.0284C200.88 49.0284 200.619 49.1534 200.414 49.4034C200.215 49.6477 200.116 49.9545 200.116 50.3239ZM216.077 65.2642C214.849 65.2642 213.778 64.983 212.864 64.4205C211.949 63.858 211.239 63.071 210.733 62.0597C210.227 61.0483 209.974 59.8665 209.974 58.5142C209.974 57.1562 210.227 55.9687 210.733 54.9517C211.239 53.9347 211.949 53.1449 212.864 52.5824C213.778 52.0199 214.849 51.7386 216.077 51.7386C217.304 51.7386 218.375 52.0199 219.29 52.5824C220.204 53.1449 220.915 53.9347 221.42 54.9517C221.926 55.9687 222.179 57.1562 222.179 58.5142C222.179 59.8665 221.926 61.0483 221.42 62.0597C220.915 63.071 220.204 63.858 219.29 64.4205C218.375 64.983 217.304 65.2642 216.077 65.2642ZM216.085 63.125C216.881 63.125 217.54 62.9148 218.062 62.4943C218.585 62.0739 218.971 61.5142 219.221 60.8153C219.477 60.1165 219.605 59.3466 219.605 58.5057C219.605 57.6705 219.477 56.9034 219.221 56.2045C218.971 55.5 218.585 54.9347 218.062 54.5085C217.54 54.0824 216.881 53.8693 216.085 53.8693C215.284 53.8693 214.619 54.0824 214.091 54.5085C213.568 54.9347 213.179 55.5 212.923 56.2045C212.673 56.9034 212.548 57.6705 212.548 58.5057C212.548 59.3466 212.673 60.1165 212.923 60.8153C213.179 61.5142 213.568 62.0739 214.091 62.4943C214.619 62.9148 215.284 63.125 216.085 63.125Z" fill="#333333"/>
</svg>
