<svg width="350" height="116" viewBox="0 0 350 116" fill="none" xmlns="http://www.w3.org/2000/svg">
<rect x="2" y="2" width="345.809" height="112" rx="6" fill="#D99BFF" stroke="#BF18F9" stroke-width="4"/>
<path d="M20.0587 51V33.5455H26.2803C27.6325 33.5455 28.7547 33.7784 29.6467 34.2443C30.5445 34.7102 31.2149 35.3551 31.6581 36.179C32.1013 36.9972 32.3229 37.9432 32.3229 39.017C32.3229 40.0852 32.0984 41.0256 31.6496 41.8381C31.2064 42.6449 30.5359 43.2727 29.6382 43.7216C28.7462 44.1705 27.624 44.3949 26.2717 44.3949H21.5587V42.1278H26.0331C26.8854 42.1278 27.5786 42.0057 28.1126 41.7614C28.6524 41.517 29.0473 41.1619 29.2973 40.696C29.5473 40.2301 29.6723 39.6705 29.6723 39.017C29.6723 38.358 29.5445 37.7869 29.2888 37.304C29.0388 36.821 28.6439 36.4517 28.1041 36.196C27.57 35.9347 26.8683 35.804 25.999 35.804H22.6922V51H20.0587ZM28.6751 43.125L32.9876 51H29.9876L25.7604 43.125H28.6751ZM40.3449 51.2642C39.0551 51.2642 37.9443 50.9886 37.0125 50.4375C36.0863 49.8807 35.3704 49.0994 34.8647 48.0938C34.3647 47.0824 34.1147 45.8977 34.1147 44.5398C34.1147 43.1989 34.3647 42.017 34.8647 40.9943C35.3704 39.9716 36.075 39.1733 36.9784 38.5994C37.8875 38.0256 38.95 37.7386 40.1659 37.7386C40.9045 37.7386 41.6204 37.8608 42.3136 38.1051C43.0068 38.3494 43.6289 38.733 44.1801 39.2557C44.7312 39.7784 45.1659 40.4574 45.4841 41.2926C45.8022 42.1222 45.9613 43.1307 45.9613 44.3182V45.2216H35.5551V43.3125H43.4642C43.4642 42.642 43.3278 42.0483 43.0551 41.5312C42.7824 41.0085 42.3988 40.5966 41.9045 40.2955C41.4159 39.9943 40.842 39.8438 40.1829 39.8438C39.467 39.8438 38.842 40.0199 38.3079 40.3722C37.7795 40.7187 37.3704 41.1733 37.0806 41.7358C36.7966 42.2926 36.6545 42.8977 36.6545 43.5511V45.0426C36.6545 45.9176 36.8079 46.6619 37.1147 47.2756C37.4272 47.8892 37.8619 48.358 38.4187 48.6818C38.9755 49 39.6261 49.1591 40.3704 49.1591C40.8534 49.1591 41.2937 49.0909 41.6914 48.9545C42.0892 48.8125 42.4329 48.6023 42.7227 48.3239C43.0125 48.0455 43.2341 47.7017 43.3875 47.2926L45.7994 47.7273C45.6062 48.4375 45.2596 49.0597 44.7596 49.5938C44.2653 50.1222 43.6431 50.5341 42.8931 50.8295C42.1488 51.1193 41.2994 51.2642 40.3449 51.2642ZM52.1424 51.2898C51.3129 51.2898 50.5629 51.1364 49.8924 50.8295C49.2219 50.517 48.6907 50.0653 48.2987 49.4744C47.9123 48.8835 47.7191 48.1591 47.7191 47.3011C47.7191 46.5625 47.8612 45.9545 48.1452 45.4773C48.4293 45 48.8129 44.6222 49.2958 44.3438C49.7788 44.0653 50.3185 43.8551 50.9151 43.7131C51.5117 43.571 52.1197 43.4631 52.739 43.3892C53.5231 43.2983 54.1594 43.2244 54.6481 43.1676C55.1367 43.1051 55.4918 43.0057 55.7134 42.8693C55.935 42.733 56.0458 42.5114 56.0458 42.2045V42.1449C56.0458 41.4006 55.8356 40.8239 55.4151 40.4148C55.0004 40.0057 54.381 39.8011 53.5572 39.8011C52.6992 39.8011 52.0231 39.9915 51.5288 40.3722C51.0401 40.7472 50.7021 41.1648 50.5146 41.625L48.1197 41.0795C48.4038 40.2841 48.8185 39.642 49.364 39.1534C49.9151 38.6591 50.5487 38.3011 51.2646 38.0795C51.9805 37.8523 52.7333 37.7386 53.5231 37.7386C54.0458 37.7386 54.5998 37.8011 55.185 37.9261C55.7759 38.0455 56.3271 38.267 56.8384 38.5909C57.3555 38.9148 57.7788 39.3778 58.1083 39.9801C58.4379 40.5767 58.6026 41.3523 58.6026 42.3068V51H56.114V49.2102H56.0117C55.8469 49.5398 55.5998 49.8636 55.2702 50.1818C54.9407 50.5 54.5174 50.7642 54.0004 50.9744C53.4833 51.1847 52.864 51.2898 52.1424 51.2898ZM52.6964 49.2443C53.4009 49.2443 54.0032 49.1051 54.5032 48.8267C55.0089 48.5483 55.3924 48.1847 55.6538 47.7358C55.9208 47.2812 56.0543 46.7955 56.0543 46.2784V44.5909C55.9634 44.6818 55.7873 44.767 55.5259 44.8466C55.2702 44.9205 54.9776 44.9858 54.6481 45.0426C54.3185 45.0937 53.9975 45.142 53.685 45.1875C53.3725 45.2273 53.1112 45.2614 52.9009 45.2898C52.4066 45.3523 51.9549 45.4574 51.5458 45.6051C51.1424 45.7528 50.8185 45.9659 50.5742 46.2443C50.3356 46.517 50.2163 46.8807 50.2163 47.3352C50.2163 47.9659 50.4492 48.4432 50.9151 48.767C51.381 49.0852 51.9748 49.2443 52.6964 49.2443ZM67.7709 37.9091V39.9545H60.3732V37.9091H67.7709ZM62.4016 51V36.392C62.4016 35.5739 62.5806 34.8949 62.9385 34.3551C63.2965 33.8097 63.7709 33.4034 64.3618 33.1364C64.9527 32.8636 65.5948 32.7273 66.288 32.7273C66.7993 32.7273 67.2368 32.7699 67.6005 32.8551C67.9641 32.9347 68.234 33.0085 68.4101 33.0767L67.8135 35.1392C67.6942 35.1051 67.5408 35.0653 67.3533 35.0199C67.1658 34.9687 66.9385 34.9432 66.6715 34.9432C66.0522 34.9432 65.609 35.0966 65.3419 35.4034C65.0806 35.7102 64.9499 36.1534 64.9499 36.733V51H62.4016ZM69.9442 51V37.9091H72.4925V51H69.9442ZM71.2311 35.8892C70.7879 35.8892 70.4072 35.7415 70.0891 35.446C69.7766 35.1449 69.6203 34.7869 69.6203 34.3722C69.6203 33.9517 69.7766 33.5937 70.0891 33.2983C70.4072 32.9972 70.7879 32.8466 71.2311 32.8466C71.6743 32.8466 72.0521 32.9972 72.3646 33.2983C72.6828 33.5937 72.8419 33.9517 72.8419 34.3722C72.8419 34.7869 72.6828 35.1449 72.3646 35.446C72.0521 35.7415 71.6743 35.8892 71.2311 35.8892ZM75.4647 51V37.9091H77.9278V39.9886H78.0642C78.3028 39.2841 78.7233 38.7301 79.3255 38.3267C79.9335 37.9176 80.621 37.7131 81.388 37.7131C81.5471 37.7131 81.7346 37.7187 81.9505 37.7301C82.1721 37.7415 82.3454 37.7557 82.4704 37.7727V40.2102C82.3682 40.1818 82.1863 40.1506 81.925 40.1165C81.6636 40.0767 81.4022 40.0568 81.1409 40.0568C80.5386 40.0568 80.0017 40.1847 79.5301 40.4403C79.0642 40.6903 78.6949 41.0398 78.4221 41.4886C78.1494 41.9318 78.013 42.4375 78.013 43.0057V51H75.4647ZM84.2197 51V37.9091H86.6657V40.0398H86.8276C87.1004 39.3182 87.5464 38.7557 88.1657 38.3523C88.785 37.9432 89.5265 37.7386 90.3901 37.7386C91.2651 37.7386 91.9981 37.9432 92.589 38.3523C93.1856 38.7614 93.6259 39.3239 93.91 40.0398H94.0464C94.3589 39.3409 94.856 38.7841 95.5379 38.3693C96.2197 37.9489 97.0322 37.7386 97.9754 37.7386C99.1629 37.7386 100.132 38.1108 100.882 38.8551C101.637 39.5994 102.015 40.7216 102.015 42.2216V51H99.4668V42.4602C99.4668 41.5739 99.2254 40.9318 98.7424 40.5341C98.2595 40.1364 97.6828 39.9375 97.0123 39.9375C96.1828 39.9375 95.5379 40.1932 95.0776 40.7045C94.6174 41.2102 94.3873 41.8608 94.3873 42.6562V51H91.8475V42.2983C91.8475 41.5881 91.6259 41.017 91.1828 40.5852C90.7396 40.1534 90.1629 39.9375 89.4526 39.9375C88.9697 39.9375 88.5237 40.0653 88.1146 40.321C87.7112 40.571 87.3845 40.9205 87.1345 41.3693C86.8901 41.8182 86.768 42.3381 86.768 42.929V51H84.2197ZM108.784 51.2898C107.955 51.2898 107.205 51.1364 106.534 50.8295C105.864 50.517 105.333 50.0653 104.941 49.4744C104.554 48.8835 104.361 48.1591 104.361 47.3011C104.361 46.5625 104.503 45.9545 104.787 45.4773C105.071 45 105.455 44.6222 105.938 44.3438C106.421 44.0653 106.96 43.8551 107.557 43.7131C108.154 43.571 108.762 43.4631 109.381 43.3892C110.165 43.2983 110.801 43.2244 111.29 43.1676C111.779 43.1051 112.134 43.0057 112.355 42.8693C112.577 42.733 112.688 42.5114 112.688 42.2045V42.1449C112.688 41.4006 112.477 40.8239 112.057 40.4148C111.642 40.0057 111.023 39.8011 110.199 39.8011C109.341 39.8011 108.665 39.9915 108.171 40.3722C107.682 40.7472 107.344 41.1648 107.156 41.625L104.762 41.0795C105.046 40.2841 105.46 39.642 106.006 39.1534C106.557 38.6591 107.191 38.3011 107.906 38.0795C108.622 37.8523 109.375 37.7386 110.165 37.7386C110.688 37.7386 111.242 37.8011 111.827 37.9261C112.418 38.0455 112.969 38.267 113.48 38.5909C113.997 38.9148 114.421 39.3778 114.75 39.9801C115.08 40.5767 115.245 41.3523 115.245 42.3068V51H112.756V49.2102H112.654C112.489 49.5398 112.242 49.8636 111.912 50.1818C111.583 50.5 111.159 50.7642 110.642 50.9744C110.125 51.1847 109.506 51.2898 108.784 51.2898ZM109.338 49.2443C110.043 49.2443 110.645 49.1051 111.145 48.8267C111.651 48.5483 112.034 48.1847 112.296 47.7358C112.563 47.2812 112.696 46.7955 112.696 46.2784V44.5909C112.605 44.6818 112.429 44.767 112.168 44.8466C111.912 44.9205 111.62 44.9858 111.29 45.0426C110.96 45.0937 110.639 45.142 110.327 45.1875C110.014 45.2273 109.753 45.2614 109.543 45.2898C109.048 45.3523 108.597 45.4574 108.188 45.6051C107.784 45.7528 107.46 45.9659 107.216 46.2443C106.977 46.517 106.858 46.8807 106.858 47.3352C106.858 47.9659 107.091 48.4432 107.557 48.767C108.023 49.0852 108.617 49.2443 109.338 49.2443ZM118.183 51V37.9091H120.646V39.9886H120.782C121.021 39.2841 121.441 38.7301 122.043 38.3267C122.651 37.9176 123.339 37.7131 124.106 37.7131C124.265 37.7131 124.453 37.7187 124.668 37.7301C124.89 37.7415 125.063 37.7557 125.188 37.7727V40.2102C125.086 40.1818 124.904 40.1506 124.643 40.1165C124.382 40.0767 124.12 40.0568 123.859 40.0568C123.257 40.0568 122.72 40.1847 122.248 40.4403C121.782 40.6903 121.413 41.0398 121.14 41.4886C120.867 41.9318 120.731 42.4375 120.731 43.0057V51H118.183ZM136.643 51.2898C135.813 51.2898 135.063 51.1364 134.393 50.8295C133.722 50.517 133.191 50.0653 132.799 49.4744C132.413 48.8835 132.22 48.1591 132.22 47.3011C132.22 46.5625 132.362 45.9545 132.646 45.4773C132.93 45 133.313 44.6222 133.796 44.3438C134.279 44.0653 134.819 43.8551 135.416 43.7131C136.012 43.571 136.62 43.4631 137.239 43.3892C138.024 43.2983 138.66 43.2244 139.149 43.1676C139.637 43.1051 139.992 43.0057 140.214 42.8693C140.435 42.733 140.546 42.5114 140.546 42.2045V42.1449C140.546 41.4006 140.336 40.8239 139.916 40.4148C139.501 40.0057 138.881 39.8011 138.058 39.8011C137.2 39.8011 136.524 39.9915 136.029 40.3722C135.541 40.7472 135.203 41.1648 135.015 41.625L132.62 41.0795C132.904 40.2841 133.319 39.642 133.864 39.1534C134.416 38.6591 135.049 38.3011 135.765 38.0795C136.481 37.8523 137.234 37.7386 138.024 37.7386C138.546 37.7386 139.1 37.8011 139.685 37.9261C140.276 38.0455 140.828 38.267 141.339 38.5909C141.856 38.9148 142.279 39.3778 142.609 39.9801C142.938 40.5767 143.103 41.3523 143.103 42.3068V51H140.614V49.2102H140.512C140.347 49.5398 140.1 49.8636 139.771 50.1818C139.441 50.5 139.018 50.7642 138.501 50.9744C137.984 51.1847 137.364 51.2898 136.643 51.2898ZM137.197 49.2443C137.901 49.2443 138.504 49.1051 139.004 48.8267C139.509 48.5483 139.893 48.1847 140.154 47.7358C140.421 47.2812 140.555 46.7955 140.555 46.2784V44.5909C140.464 44.6818 140.288 44.767 140.026 44.8466C139.771 44.9205 139.478 44.9858 139.149 45.0426C138.819 45.0937 138.498 45.142 138.185 45.1875C137.873 45.2273 137.612 45.2614 137.401 45.2898C136.907 45.3523 136.455 45.4574 136.046 45.6051C135.643 45.7528 135.319 45.9659 135.075 46.2443C134.836 46.517 134.717 46.8807 134.717 47.3352C134.717 47.9659 134.95 48.4432 135.416 48.767C135.881 49.0852 136.475 49.2443 137.197 49.2443ZM154.485 43.2273V51H151.937V37.9091H154.383V40.0398H154.545C154.846 39.3466 155.317 38.7898 155.96 38.3693C156.607 37.9489 157.423 37.7386 158.406 37.7386C159.298 37.7386 160.079 37.9261 160.749 38.3011C161.42 38.6705 161.94 39.2216 162.309 39.9545C162.678 40.6875 162.863 41.5937 162.863 42.6733V51H160.315V42.9801C160.315 42.0312 160.067 41.2898 159.573 40.7557C159.079 40.2159 158.4 39.946 157.536 39.946C156.945 39.946 156.42 40.0739 155.96 40.3295C155.505 40.5852 155.144 40.9602 154.877 41.4545C154.616 41.9432 154.485 42.5341 154.485 43.2273ZM171.467 51.2642C170.177 51.2642 169.066 50.9886 168.134 50.4375C167.208 49.8807 166.492 49.0994 165.986 48.0938C165.486 47.0824 165.236 45.8977 165.236 44.5398C165.236 43.1989 165.486 42.017 165.986 40.9943C166.492 39.9716 167.197 39.1733 168.1 38.5994C169.009 38.0256 170.072 37.7386 171.288 37.7386C172.026 37.7386 172.742 37.8608 173.435 38.1051C174.129 38.3494 174.751 38.733 175.302 39.2557C175.853 39.7784 176.288 40.4574 176.606 41.2926C176.924 42.1222 177.083 43.1307 177.083 44.3182V45.2216H166.677V43.3125H174.586C174.586 42.642 174.45 42.0483 174.177 41.5312C173.904 41.0085 173.521 40.5966 173.026 40.2955C172.538 39.9943 171.964 39.8438 171.305 39.8438C170.589 39.8438 169.964 40.0199 169.43 40.3722C168.901 40.7187 168.492 41.1733 168.202 41.7358C167.918 42.2926 167.776 42.8977 167.776 43.5511V45.0426C167.776 45.9176 167.93 46.6619 168.236 47.2756C168.549 47.8892 168.984 48.358 169.54 48.6818C170.097 49 170.748 49.1591 171.492 49.1591C171.975 49.1591 172.415 49.0909 172.813 48.9545C173.211 48.8125 173.555 48.6023 173.844 48.3239C174.134 48.0455 174.356 47.7017 174.509 47.2926L176.921 47.7273C176.728 48.4375 176.381 49.0597 175.881 49.5938C175.387 50.1222 174.765 50.5341 174.015 50.8295C173.271 51.1193 172.421 51.2642 171.467 51.2642ZM184.969 51.2642C183.702 51.2642 182.611 50.9773 181.696 50.4034C180.787 49.8239 180.088 49.0256 179.599 48.0085C179.111 46.9915 178.866 45.8267 178.866 44.5142C178.866 43.1847 179.116 42.0114 179.616 40.9943C180.116 39.9716 180.821 39.1733 181.73 38.5994C182.639 38.0256 183.71 37.7386 184.943 37.7386C185.937 37.7386 186.824 37.9233 187.602 38.2926C188.381 38.6562 189.008 39.1676 189.486 39.8267C189.969 40.4858 190.256 41.2557 190.347 42.1364H187.866C187.73 41.5227 187.418 40.9943 186.929 40.5511C186.446 40.108 185.798 39.8864 184.986 39.8864C184.276 39.8864 183.653 40.0739 183.119 40.4489C182.591 40.8182 182.179 41.3466 181.883 42.0341C181.588 42.7159 181.44 43.5227 181.44 44.4545C181.44 45.4091 181.585 46.233 181.875 46.9261C182.165 47.6193 182.574 48.1562 183.102 48.5369C183.636 48.9176 184.264 49.108 184.986 49.108C185.469 49.108 185.906 49.0199 186.298 48.8438C186.696 48.6619 187.028 48.4034 187.295 48.0682C187.568 47.733 187.758 47.3295 187.866 46.858H190.347C190.256 47.7045 189.98 48.4602 189.52 49.125C189.06 49.7898 188.443 50.3125 187.67 50.6932C186.903 51.0739 186.003 51.2642 184.969 51.2642ZM198.258 51.2642C196.968 51.2642 195.857 50.9886 194.925 50.4375C193.999 49.8807 193.283 49.0994 192.778 48.0938C192.278 47.0824 192.028 45.8977 192.028 44.5398C192.028 43.1989 192.278 42.017 192.778 40.9943C193.283 39.9716 193.988 39.1733 194.891 38.5994C195.8 38.0256 196.863 37.7386 198.079 37.7386C198.817 37.7386 199.533 37.8608 200.226 38.1051C200.92 38.3494 201.542 38.733 202.093 39.2557C202.644 39.7784 203.079 40.4574 203.397 41.2926C203.715 42.1222 203.874 43.1307 203.874 44.3182V45.2216H193.468V43.3125H201.377C201.377 42.642 201.241 42.0483 200.968 41.5312C200.695 41.0085 200.312 40.5966 199.817 40.2955C199.329 39.9943 198.755 39.8438 198.096 39.8438C197.38 39.8438 196.755 40.0199 196.221 40.3722C195.692 40.7187 195.283 41.1733 194.994 41.7358C194.709 42.2926 194.567 42.8977 194.567 43.5511V45.0426C194.567 45.9176 194.721 46.6619 195.028 47.2756C195.34 47.8892 195.775 48.358 196.332 48.6818C196.888 49 197.539 49.1591 198.283 49.1591C198.766 49.1591 199.207 49.0909 199.604 48.9545C200.002 48.8125 200.346 48.6023 200.636 48.3239C200.925 48.0455 201.147 47.7017 201.3 47.2926L203.712 47.7273C203.519 48.4375 203.173 49.0597 202.673 49.5938C202.178 50.1222 201.556 50.5341 200.806 50.8295C200.062 51.1193 199.212 51.2642 198.258 51.2642ZM216.055 41.1051L213.746 41.5142C213.649 41.2187 213.496 40.9375 213.285 40.6705C213.081 40.4034 212.802 40.1847 212.45 40.0142C212.098 39.8437 211.658 39.7585 211.129 39.7585C210.408 39.7585 209.805 39.9205 209.322 40.2443C208.839 40.5625 208.598 40.9744 208.598 41.4801C208.598 41.9176 208.76 42.2699 209.084 42.5369C209.408 42.804 209.93 43.0227 210.652 43.1932L212.731 43.6705C213.936 43.9489 214.834 44.3778 215.425 44.9574C216.016 45.5369 216.311 46.2898 216.311 47.2159C216.311 48 216.084 48.6989 215.629 49.3125C215.18 49.9205 214.552 50.3977 213.746 50.7443C212.944 51.0909 212.016 51.2642 210.959 51.2642C209.493 51.2642 208.297 50.9517 207.371 50.3267C206.444 49.696 205.876 48.8011 205.666 47.642L208.129 47.267C208.283 47.9091 208.598 48.3949 209.075 48.7244C209.552 49.0483 210.175 49.2102 210.942 49.2102C211.777 49.2102 212.444 49.0369 212.944 48.6903C213.444 48.3381 213.694 47.9091 213.694 47.4034C213.694 46.9943 213.541 46.6506 213.234 46.3722C212.933 46.0937 212.47 45.8835 211.845 45.7415L209.629 45.2557C208.408 44.9773 207.504 44.5341 206.919 43.9261C206.339 43.3182 206.05 42.5483 206.05 41.6165C206.05 40.8437 206.266 40.1676 206.697 39.5881C207.129 39.0085 207.726 38.5568 208.487 38.233C209.248 37.9034 210.121 37.7386 211.104 37.7386C212.518 37.7386 213.632 38.0455 214.444 38.6591C215.257 39.267 215.794 40.0824 216.055 41.1051ZM228.466 41.1051L226.157 41.5142C226.06 41.2187 225.907 40.9375 225.697 40.6705C225.492 40.4034 225.214 40.1847 224.861 40.0142C224.509 39.8437 224.069 39.7585 223.54 39.7585C222.819 39.7585 222.216 39.9205 221.734 40.2443C221.251 40.5625 221.009 40.9744 221.009 41.4801C221.009 41.9176 221.171 42.2699 221.495 42.5369C221.819 42.804 222.341 43.0227 223.063 43.1932L225.143 43.6705C226.347 43.9489 227.245 44.3778 227.836 44.9574C228.427 45.5369 228.722 46.2898 228.722 47.2159C228.722 48 228.495 48.6989 228.04 49.3125C227.591 49.9205 226.964 50.3977 226.157 50.7443C225.356 51.0909 224.427 51.2642 223.37 51.2642C221.904 51.2642 220.708 50.9517 219.782 50.3267C218.856 49.696 218.287 48.8011 218.077 47.642L220.54 47.267C220.694 47.9091 221.009 48.3949 221.486 48.7244C221.964 49.0483 222.586 49.2102 223.353 49.2102C224.188 49.2102 224.856 49.0369 225.356 48.6903C225.856 48.3381 226.106 47.9091 226.106 47.4034C226.106 46.9943 225.952 46.6506 225.645 46.3722C225.344 46.0937 224.881 45.8835 224.256 45.7415L222.04 45.2557C220.819 44.9773 219.915 44.5341 219.33 43.9261C218.751 43.3182 218.461 42.5483 218.461 41.6165C218.461 40.8437 218.677 40.1676 219.109 39.5881C219.54 39.0085 220.137 38.5568 220.898 38.233C221.66 37.9034 222.532 37.7386 223.515 37.7386C224.93 37.7386 226.043 38.0455 226.856 38.6591C227.668 39.267 228.205 40.0824 228.466 41.1051ZM231.068 51V37.9091H233.616V51H231.068ZM232.355 35.8892C231.912 35.8892 231.531 35.7415 231.213 35.446C230.9 35.1449 230.744 34.7869 230.744 34.3722C230.744 33.9517 230.9 33.5937 231.213 33.2983C231.531 32.9972 231.912 32.8466 232.355 32.8466C232.798 32.8466 233.176 32.9972 233.488 33.2983C233.807 33.5937 233.966 33.9517 233.966 34.3722C233.966 34.7869 233.807 35.1449 233.488 35.446C233.176 35.7415 232.798 35.8892 232.355 35.8892ZM241.489 51.2557C240.432 51.2557 239.489 50.9858 238.66 50.446C237.836 49.9006 237.188 49.125 236.716 48.1193C236.25 47.108 236.018 45.8949 236.018 44.4801C236.018 43.0653 236.253 41.8551 236.725 40.8494C237.202 39.8437 237.856 39.0739 238.685 38.5398C239.515 38.0057 240.455 37.7386 241.506 37.7386C242.319 37.7386 242.972 37.875 243.466 38.1477C243.966 38.4148 244.353 38.7273 244.625 39.0852C244.904 39.4432 245.12 39.7585 245.273 40.0312H245.427V33.5455H247.975V51H245.486V48.9631H245.273C245.12 49.2415 244.898 49.5597 244.608 49.9176C244.324 50.2756 243.932 50.5881 243.432 50.8551C242.932 51.1222 242.285 51.2557 241.489 51.2557ZM242.052 49.0824C242.785 49.0824 243.404 48.8892 243.91 48.5028C244.421 48.1108 244.807 47.5682 245.069 46.875C245.336 46.1818 245.469 45.375 245.469 44.4545C245.469 43.5455 245.339 42.75 245.077 42.0682C244.816 41.3864 244.432 40.8551 243.927 40.4744C243.421 40.0937 242.796 39.9034 242.052 39.9034C241.285 39.9034 240.645 40.1023 240.134 40.5C239.623 40.8977 239.236 41.4403 238.975 42.1278C238.719 42.8153 238.591 43.5909 238.591 44.4545C238.591 45.3295 238.722 46.1165 238.983 46.8153C239.245 47.5142 239.631 48.0682 240.143 48.4773C240.66 48.8807 241.296 49.0824 242.052 49.0824ZM254.966 51.2898C254.136 51.2898 253.386 51.1364 252.716 50.8295C252.045 50.517 251.514 50.0653 251.122 49.4744C250.736 48.8835 250.542 48.1591 250.542 47.3011C250.542 46.5625 250.684 45.9545 250.969 45.4773C251.253 45 251.636 44.6222 252.119 44.3438C252.602 44.0653 253.142 43.8551 253.738 43.7131C254.335 43.571 254.943 43.4631 255.562 43.3892C256.346 43.2983 256.983 43.2244 257.471 43.1676C257.96 43.1051 258.315 43.0057 258.537 42.8693C258.758 42.733 258.869 42.5114 258.869 42.2045V42.1449C258.869 41.4006 258.659 40.8239 258.238 40.4148C257.824 40.0057 257.204 39.8011 256.38 39.8011C255.522 39.8011 254.846 39.9915 254.352 40.3722C253.863 40.7472 253.525 41.1648 253.338 41.625L250.943 41.0795C251.227 40.2841 251.642 39.642 252.187 39.1534C252.738 38.6591 253.372 38.3011 254.088 38.0795C254.804 37.8523 255.557 37.7386 256.346 37.7386C256.869 37.7386 257.423 37.8011 258.008 37.9261C258.599 38.0455 259.15 38.267 259.662 38.5909C260.179 38.9148 260.602 39.3778 260.932 39.9801C261.261 40.5767 261.426 41.3523 261.426 42.3068V51H258.937V49.2102H258.835C258.67 49.5398 258.423 49.8636 258.094 50.1818C257.764 50.5 257.341 50.7642 256.824 50.9744C256.307 51.1847 255.687 51.2898 254.966 51.2898ZM255.52 49.2443C256.224 49.2443 256.826 49.1051 257.326 48.8267C257.832 48.5483 258.216 48.1847 258.477 47.7358C258.744 47.2812 258.878 46.7955 258.878 46.2784V44.5909C258.787 44.6818 258.611 44.767 258.349 44.8466C258.094 44.9205 257.801 44.9858 257.471 45.0426C257.142 45.0937 256.821 45.142 256.508 45.1875C256.196 45.2273 255.934 45.2614 255.724 45.2898C255.23 45.3523 254.778 45.4574 254.369 45.6051C253.966 45.7528 253.642 45.9659 253.397 46.2443C253.159 46.517 253.04 46.8807 253.04 47.3352C253.04 47.9659 253.272 48.4432 253.738 48.767C254.204 49.0852 254.798 49.2443 255.52 49.2443ZM269.265 51.2557C268.208 51.2557 267.265 50.9858 266.435 50.446C265.611 49.9006 264.963 49.125 264.492 48.1193C264.026 47.108 263.793 45.8949 263.793 44.4801C263.793 43.0653 264.029 41.8551 264.5 40.8494C264.978 39.8437 265.631 39.0739 266.461 38.5398C267.29 38.0057 268.231 37.7386 269.282 37.7386C270.094 37.7386 270.748 37.875 271.242 38.1477C271.742 38.4148 272.128 38.7273 272.401 39.0852C272.679 39.4432 272.895 39.7585 273.049 40.0312H273.202V33.5455H275.75V51H273.262V48.9631H273.049C272.895 49.2415 272.674 49.5597 272.384 49.9176C272.1 50.2756 271.708 50.5881 271.208 50.8551C270.708 51.1222 270.06 51.2557 269.265 51.2557ZM269.827 49.0824C270.56 49.0824 271.179 48.8892 271.685 48.5028C272.196 48.1108 272.583 47.5682 272.844 46.875C273.111 46.1818 273.245 45.375 273.245 44.4545C273.245 43.5455 273.114 42.75 272.853 42.0682C272.591 41.3864 272.208 40.8551 271.702 40.4744C271.196 40.0937 270.571 39.9034 269.827 39.9034C269.06 39.9034 268.421 40.1023 267.91 40.5C267.398 40.8977 267.012 41.4403 266.75 42.1278C266.495 42.8153 266.367 43.5909 266.367 44.4545C266.367 45.3295 266.498 46.1165 266.759 46.8153C267.02 47.5142 267.407 48.0682 267.918 48.4773C268.435 48.8807 269.071 49.0824 269.827 49.0824ZM284.574 51.2642C283.284 51.2642 282.173 50.9886 281.241 50.4375C280.315 49.8807 279.599 49.0994 279.093 48.0938C278.593 47.0824 278.343 45.8977 278.343 44.5398C278.343 43.1989 278.593 42.017 279.093 40.9943C279.599 39.9716 280.304 39.1733 281.207 38.5994C282.116 38.0256 283.179 37.7386 284.395 37.7386C285.133 37.7386 285.849 37.8608 286.542 38.1051C287.235 38.3494 287.858 38.733 288.409 39.2557C288.96 39.7784 289.395 40.4574 289.713 41.2926C290.031 42.1222 290.19 43.1307 290.19 44.3182V45.2216H279.784V43.3125H287.693C287.693 42.642 287.556 42.0483 287.284 41.5312C287.011 41.0085 286.628 40.5966 286.133 40.2955C285.645 39.9943 285.071 39.8438 284.412 39.8438C283.696 39.8438 283.071 40.0199 282.537 40.3722C282.008 40.7187 281.599 41.1733 281.309 41.7358C281.025 42.2926 280.883 42.8977 280.883 43.5511V45.0426C280.883 45.9176 281.037 46.6619 281.343 47.2756C281.656 47.8892 282.091 48.358 282.647 48.6818C283.204 49 283.855 49.1591 284.599 49.1591C285.082 49.1591 285.522 49.0909 285.92 48.9545C286.318 48.8125 286.662 48.6023 286.951 48.3239C287.241 48.0455 287.463 47.7017 287.616 47.2926L290.028 47.7273C289.835 48.4375 289.488 49.0597 288.988 49.5938C288.494 50.1222 287.872 50.5341 287.122 50.8295C286.378 51.1193 285.528 51.2642 284.574 51.2642ZM303.358 51.2557C302.301 51.2557 301.358 50.9858 300.528 50.446C299.704 49.9006 299.056 49.125 298.585 48.1193C298.119 47.108 297.886 45.8949 297.886 44.4801C297.886 43.0653 298.122 41.8551 298.593 40.8494C299.071 39.8437 299.724 39.0739 300.554 38.5398C301.383 38.0057 302.323 37.7386 303.375 37.7386C304.187 37.7386 304.841 37.875 305.335 38.1477C305.835 38.4148 306.221 38.7273 306.494 39.0852C306.772 39.4432 306.988 39.7585 307.142 40.0312H307.295V33.5455H309.843V51H307.355V48.9631H307.142C306.988 49.2415 306.767 49.5597 306.477 49.9176C306.193 50.2756 305.801 50.5881 305.301 50.8551C304.801 51.1222 304.153 51.2557 303.358 51.2557ZM303.92 49.0824C304.653 49.0824 305.272 48.8892 305.778 48.5028C306.289 48.1108 306.676 47.5682 306.937 46.875C307.204 46.1818 307.338 45.375 307.338 44.4545C307.338 43.5455 307.207 42.75 306.946 42.0682C306.684 41.3864 306.301 40.8551 305.795 40.4744C305.289 40.0937 304.664 39.9034 303.92 39.9034C303.153 39.9034 302.514 40.1023 302.002 40.5C301.491 40.8977 301.105 41.4403 300.843 42.1278C300.588 42.8153 300.46 43.5909 300.46 44.4545C300.46 45.3295 300.591 46.1165 300.852 46.8153C301.113 47.5142 301.5 48.0682 302.011 48.4773C302.528 48.8807 303.164 49.0824 303.92 49.0824ZM318.539 51.2642C317.311 51.2642 316.24 50.983 315.326 50.4205C314.411 49.858 313.701 49.071 313.195 48.0597C312.689 47.0483 312.436 45.8665 312.436 44.5142C312.436 43.1562 312.689 41.9687 313.195 40.9517C313.701 39.9347 314.411 39.1449 315.326 38.5824C316.24 38.0199 317.311 37.7386 318.539 37.7386C319.766 37.7386 320.837 38.0199 321.752 38.5824C322.666 39.1449 323.377 39.9347 323.882 40.9517C324.388 41.9687 324.641 43.1562 324.641 44.5142C324.641 45.8665 324.388 47.0483 323.882 48.0597C323.377 49.071 322.666 49.858 321.752 50.4205C320.837 50.983 319.766 51.2642 318.539 51.2642ZM318.547 49.125C319.343 49.125 320.002 48.9148 320.524 48.4943C321.047 48.0739 321.434 47.5142 321.684 46.8153C321.939 46.1165 322.067 45.3466 322.067 44.5057C322.067 43.6705 321.939 42.9034 321.684 42.2045C321.434 41.5 321.047 40.9347 320.524 40.5085C320.002 40.0824 319.343 39.8693 318.547 39.8693C317.746 39.8693 317.081 40.0824 316.553 40.5085C316.03 40.9347 315.641 41.5 315.385 42.2045C315.135 42.9034 315.01 43.6705 315.01 44.5057C315.01 45.3466 315.135 46.1165 315.385 46.8153C315.641 47.5142 316.03 48.0739 316.553 48.4943C317.081 48.9148 317.746 49.125 318.547 49.125ZM41.0149 83.2898C40.1854 83.2898 39.4354 83.1364 38.7649 82.8295C38.0945 82.517 37.5632 82.0653 37.1712 81.4744C36.7848 80.8835 36.5916 80.1591 36.5916 79.3011C36.5916 78.5625 36.7337 77.9545 37.0178 77.4773C37.3019 77 37.6854 76.6222 38.1684 76.3438C38.6513 76.0653 39.1911 75.8551 39.7877 75.7131C40.3843 75.571 40.9922 75.4631 41.6115 75.3892C42.3956 75.2983 43.032 75.2244 43.5206 75.1676C44.0093 75.1051 44.3644 75.0057 44.586 74.8693C44.8076 74.733 44.9184 74.5114 44.9184 74.2045V74.1449C44.9184 73.4006 44.7081 72.8239 44.2877 72.4148C43.8729 72.0057 43.2536 71.8011 42.4297 71.8011C41.5718 71.8011 40.8956 71.9915 40.4013 72.3722C39.9127 72.7472 39.5746 73.1648 39.3871 73.625L36.9922 73.0795C37.2763 72.2841 37.6911 71.642 38.2365 71.1534C38.7877 70.6591 39.4212 70.3011 40.1371 70.0795C40.853 69.8523 41.6059 69.7386 42.3956 69.7386C42.9184 69.7386 43.4723 69.8011 44.0576 69.9261C44.6485 70.0455 45.1996 70.267 45.711 70.5909C46.228 70.9148 46.6513 71.3778 46.9809 71.9801C47.3104 72.5767 47.4752 73.3523 47.4752 74.3068V83H44.9865V81.2102H44.8843C44.7195 81.5398 44.4723 81.8636 44.1428 82.1818C43.8132 82.5 43.3899 82.7642 42.8729 82.9744C42.3559 83.1847 41.7365 83.2898 41.0149 83.2898ZM41.5689 81.2443C42.2735 81.2443 42.8757 81.1051 43.3757 80.8267C43.8814 80.5483 44.2649 80.1847 44.5263 79.7358C44.7934 79.2812 44.9269 78.7955 44.9269 78.2784V76.5909C44.836 76.6818 44.6598 76.767 44.3985 76.8466C44.1428 76.9205 43.8502 76.9858 43.5206 77.0426C43.1911 77.0937 42.8701 77.142 42.5576 77.1875C42.2451 77.2273 41.9837 77.2614 41.7735 77.2898C41.2792 77.3523 40.8274 77.4574 40.4184 77.6051C40.0149 77.7528 39.6911 77.9659 39.4468 78.2443C39.2081 78.517 39.0888 78.8807 39.0888 79.3352C39.0888 79.9659 39.3218 80.4432 39.7877 80.767C40.2536 81.0852 40.8473 81.2443 41.5689 81.2443ZM55.9276 83.2642C54.6605 83.2642 53.5696 82.9773 52.6548 82.4034C51.7457 81.8239 51.0469 81.0256 50.5582 80.0085C50.0696 78.9915 49.8253 77.8267 49.8253 76.5142C49.8253 75.1847 50.0753 74.0114 50.5753 72.9943C51.0753 71.9716 51.7798 71.1733 52.6889 70.5994C53.598 70.0256 54.669 69.7386 55.902 69.7386C56.8963 69.7386 57.7827 69.9233 58.5611 70.2926C59.3395 70.6562 59.9673 71.1676 60.4446 71.8267C60.9276 72.4858 61.2145 73.2557 61.3054 74.1364H58.8253C58.6889 73.5227 58.3764 72.9943 57.8878 72.5511C57.4048 72.108 56.7571 71.8864 55.9446 71.8864C55.2344 71.8864 54.6122 72.0739 54.0781 72.4489C53.5497 72.8182 53.1378 73.3466 52.8423 74.0341C52.5469 74.7159 52.3991 75.5227 52.3991 76.4545C52.3991 77.4091 52.544 78.233 52.8338 78.9261C53.1236 79.6193 53.5327 80.1562 54.0611 80.5369C54.5952 80.9176 55.223 81.108 55.9446 81.108C56.4276 81.108 56.8651 81.0199 57.2571 80.8438C57.6548 80.6619 57.9872 80.4034 58.2543 80.0682C58.527 79.733 58.7173 79.3295 58.8253 78.858H61.3054C61.2145 79.7045 60.9389 80.4602 60.4787 81.125C60.0185 81.7898 59.402 82.3125 58.6293 82.6932C57.8622 83.0739 56.9616 83.2642 55.9276 83.2642ZM69.2166 83.2642C67.9268 83.2642 66.816 82.9886 65.8842 82.4375C64.9581 81.8807 64.2421 81.0994 63.7365 80.0938C63.2365 79.0824 62.9865 77.8977 62.9865 76.5398C62.9865 75.1989 63.2365 74.017 63.7365 72.9943C64.2421 71.9716 64.9467 71.1733 65.8501 70.5994C66.7592 70.0256 67.8217 69.7386 69.0376 69.7386C69.7762 69.7386 70.4921 69.8608 71.1853 70.1051C71.8785 70.3494 72.5007 70.733 73.0518 71.2557C73.6029 71.7784 74.0376 72.4574 74.3558 73.2926C74.674 74.1222 74.8331 75.1307 74.8331 76.3182V77.2216H64.4268V75.3125H72.3359C72.3359 74.642 72.1995 74.0483 71.9268 73.5312C71.6541 73.0085 71.2706 72.5966 70.7762 72.2955C70.2876 71.9943 69.7137 71.8438 69.0546 71.8438C68.3387 71.8438 67.7137 72.0199 67.1796 72.3722C66.6512 72.7187 66.2421 73.1733 65.9524 73.7358C65.6683 74.2926 65.5262 74.8977 65.5262 75.5511V77.0426C65.5262 77.9176 65.6796 78.6619 65.9865 79.2756C66.299 79.8892 66.7336 80.358 67.2904 80.6818C67.8473 81 68.4978 81.1591 69.2421 81.1591C69.7251 81.1591 70.1654 81.0909 70.5632 80.9545C70.9609 80.8125 71.3046 80.6023 71.5944 80.3239C71.8842 80.0455 72.1058 79.7017 72.2592 79.2926L74.6711 79.7273C74.4779 80.4375 74.1314 81.0597 73.6314 81.5938C73.137 82.1222 72.5149 82.5341 71.7649 82.8295C71.0206 83.1193 70.1711 83.2642 69.2166 83.2642ZM77.2045 83V69.9091H79.7528V83H77.2045ZM78.4914 67.8892C78.0482 67.8892 77.6675 67.7415 77.3494 67.446C77.0369 67.1449 76.8806 66.7869 76.8806 66.3722C76.8806 65.9517 77.0369 65.5937 77.3494 65.2983C77.6675 64.9972 78.0482 64.8466 78.4914 64.8466C78.9346 64.8466 79.3124 64.9972 79.6249 65.2983C79.9431 65.5937 80.1022 65.9517 80.1022 66.3722C80.1022 66.7869 79.9431 67.1449 79.6249 67.446C79.3124 67.7415 78.9346 67.8892 78.4914 67.8892ZM88.8358 69.9091V71.9545H81.6853V69.9091H88.8358ZM83.6029 66.7727H86.1512V79.1562C86.1512 79.6506 86.225 80.0227 86.3728 80.2727C86.5205 80.517 86.7108 80.6847 86.9438 80.7756C87.1824 80.8608 87.4409 80.9034 87.7194 80.9034C87.9239 80.9034 88.1029 80.8892 88.2563 80.8608C88.4097 80.8324 88.529 80.8097 88.6142 80.7926L89.0745 82.8977C88.9267 82.9545 88.7165 83.0114 88.4438 83.0682C88.1711 83.1307 87.8301 83.1648 87.4211 83.1705C86.7506 83.1818 86.1256 83.0625 85.5461 82.8125C84.9665 82.5625 84.4978 82.1761 84.1398 81.6534C83.7819 81.1307 83.6029 80.4744 83.6029 79.6847V66.7727ZM96.7001 83.2642C95.4104 83.2642 94.2996 82.9886 93.3678 82.4375C92.4416 81.8807 91.7257 81.0994 91.22 80.0938C90.72 79.0824 90.47 77.8977 90.47 76.5398C90.47 75.1989 90.72 74.017 91.22 72.9943C91.7257 71.9716 92.4303 71.1733 93.3337 70.5994C94.2428 70.0256 95.3053 69.7386 96.5212 69.7386C97.2598 69.7386 97.9757 69.8608 98.6689 70.1051C99.3621 70.3494 99.9842 70.733 100.535 71.2557C101.087 71.7784 101.521 72.4574 101.839 73.2926C102.158 74.1222 102.317 75.1307 102.317 76.3182V77.2216H91.9104V75.3125H99.8195C99.8195 74.642 99.6831 74.0483 99.4104 73.5312C99.1376 73.0085 98.7541 72.5966 98.2598 72.2955C97.7712 71.9943 97.1973 71.8438 96.5382 71.8438C95.8223 71.8438 95.1973 72.0199 94.6632 72.3722C94.1348 72.7187 93.7257 73.1733 93.4359 73.7358C93.1519 74.2926 93.0098 74.8977 93.0098 75.5511V77.0426C93.0098 77.9176 93.1632 78.6619 93.47 79.2756C93.7825 79.8892 94.2172 80.358 94.774 80.6818C95.3308 81 95.9814 81.1591 96.7257 81.1591C97.2087 81.1591 97.649 81.0909 98.0467 80.9545C98.4445 80.8125 98.7882 80.6023 99.078 80.3239C99.3678 80.0455 99.5894 79.7017 99.7428 79.2926L102.155 79.7273C101.962 80.4375 101.615 81.0597 101.115 81.5938C100.621 82.1222 99.9984 82.5341 99.2484 82.8295C98.5041 83.1193 97.6547 83.2642 96.7001 83.2642ZM115.484 83.2557C114.427 83.2557 113.484 82.9858 112.655 82.446C111.831 81.9006 111.183 81.125 110.711 80.1193C110.246 79.108 110.013 77.8949 110.013 76.4801C110.013 75.0653 110.248 73.8551 110.72 72.8494C111.197 71.8437 111.851 71.0739 112.68 70.5398C113.51 70.0057 114.45 69.7386 115.501 69.7386C116.314 69.7386 116.967 69.875 117.461 70.1477C117.961 70.4148 118.348 70.7273 118.621 71.0852C118.899 71.4432 119.115 71.7585 119.268 72.0312H119.422V65.5455H121.97V83H119.481V80.9631H119.268C119.115 81.2415 118.893 81.5597 118.603 81.9176C118.319 82.2756 117.927 82.5881 117.427 82.8551C116.927 83.1222 116.28 83.2557 115.484 83.2557ZM116.047 81.0824C116.78 81.0824 117.399 80.8892 117.905 80.5028C118.416 80.1108 118.802 79.5682 119.064 78.875C119.331 78.1818 119.464 77.375 119.464 76.4545C119.464 75.5455 119.334 74.75 119.072 74.0682C118.811 73.3864 118.427 72.8551 117.922 72.4744C117.416 72.0937 116.791 71.9034 116.047 71.9034C115.28 71.9034 114.64 72.1023 114.129 72.5C113.618 72.8977 113.231 73.4403 112.97 74.1278C112.714 74.8153 112.586 75.5909 112.586 76.4545C112.586 77.3295 112.717 78.1165 112.978 78.8153C113.24 79.5142 113.626 80.0682 114.138 80.4773C114.655 80.8807 115.291 81.0824 116.047 81.0824ZM130.665 83.2642C129.438 83.2642 128.367 82.983 127.452 82.4205C126.537 81.858 125.827 81.071 125.321 80.0597C124.816 79.0483 124.563 77.8665 124.563 76.5142C124.563 75.1562 124.816 73.9687 125.321 72.9517C125.827 71.9347 126.537 71.1449 127.452 70.5824C128.367 70.0199 129.438 69.7386 130.665 69.7386C131.893 69.7386 132.964 70.0199 133.878 70.5824C134.793 71.1449 135.503 71.9347 136.009 72.9517C136.515 73.9687 136.768 75.1562 136.768 76.5142C136.768 77.8665 136.515 79.0483 136.009 80.0597C135.503 81.071 134.793 81.858 133.878 82.4205C132.964 82.983 131.893 83.2642 130.665 83.2642ZM130.674 81.125C131.469 81.125 132.128 80.9148 132.651 80.4943C133.174 80.0739 133.56 79.5142 133.81 78.8153C134.066 78.1165 134.194 77.3466 134.194 76.5057C134.194 75.6705 134.066 74.9034 133.81 74.2045C133.56 73.5 133.174 72.9347 132.651 72.5085C132.128 72.0824 131.469 71.8693 130.674 71.8693C129.873 71.8693 129.208 72.0824 128.679 72.5085C128.157 72.9347 127.768 73.5 127.512 74.2045C127.262 74.9034 127.137 75.6705 127.137 76.5057C127.137 77.3466 127.262 78.1165 127.512 78.8153C127.768 79.5142 128.157 80.0739 128.679 80.4943C129.208 80.9148 129.873 81.125 130.674 81.125ZM148.966 73.1051L146.656 73.5142C146.559 73.2187 146.406 72.9375 146.196 72.6705C145.991 72.4034 145.713 72.1847 145.361 72.0142C145.008 71.8437 144.568 71.7585 144.04 71.7585C143.318 71.7585 142.716 71.9205 142.233 72.2443C141.75 72.5625 141.508 72.9744 141.508 73.4801C141.508 73.9176 141.67 74.2699 141.994 74.5369C142.318 74.804 142.841 75.0227 143.562 75.1932L145.642 75.6705C146.846 75.9489 147.744 76.3778 148.335 76.9574C148.926 77.5369 149.221 78.2898 149.221 79.2159C149.221 80 148.994 80.6989 148.54 81.3125C148.091 81.9205 147.463 82.3977 146.656 82.7443C145.855 83.0909 144.926 83.2642 143.869 83.2642C142.403 83.2642 141.207 82.9517 140.281 82.3267C139.355 81.696 138.787 80.8011 138.576 79.642L141.04 79.267C141.193 79.9091 141.508 80.3949 141.986 80.7244C142.463 81.0483 143.085 81.2102 143.852 81.2102C144.687 81.2102 145.355 81.0369 145.855 80.6903C146.355 80.3381 146.605 79.9091 146.605 79.4034C146.605 78.9943 146.451 78.6506 146.145 78.3722C145.843 78.0937 145.38 77.8835 144.755 77.7415L142.54 77.2557C141.318 76.9773 140.415 76.5341 139.829 75.9261C139.25 75.3182 138.96 74.5483 138.96 73.6165C138.96 72.8437 139.176 72.1676 139.608 71.5881C140.04 71.0085 140.636 70.5568 141.397 70.233C142.159 69.9034 143.031 69.7386 144.014 69.7386C145.429 69.7386 146.542 70.0455 147.355 70.6591C148.167 71.267 148.704 72.0824 148.966 73.1051ZM163.574 69.9091V71.9545H156.423V69.9091H163.574ZM158.341 66.7727H160.889V79.1562C160.889 79.6506 160.963 80.0227 161.11 80.2727C161.258 80.517 161.449 80.6847 161.681 80.7756C161.92 80.8608 162.179 80.9034 162.457 80.9034C162.662 80.9034 162.841 80.8892 162.994 80.8608C163.147 80.8324 163.267 80.8097 163.352 80.7926L163.812 82.8977C163.664 82.9545 163.454 83.0114 163.181 83.0682C162.909 83.1307 162.568 83.1648 162.159 83.1705C161.488 83.1818 160.863 83.0625 160.284 82.8125C159.704 82.5625 159.235 82.1761 158.878 81.6534C158.52 81.1307 158.341 80.4744 158.341 79.6847V66.7727ZM171.438 83.2642C170.148 83.2642 169.037 82.9886 168.105 82.4375C167.179 81.8807 166.463 81.0994 165.958 80.0938C165.458 79.0824 165.208 77.8977 165.208 76.5398C165.208 75.1989 165.458 74.017 165.958 72.9943C166.463 71.9716 167.168 71.1733 168.071 70.5994C168.98 70.0256 170.043 69.7386 171.259 69.7386C171.997 69.7386 172.713 69.8608 173.407 70.1051C174.1 70.3494 174.722 70.733 175.273 71.2557C175.824 71.7784 176.259 72.4574 176.577 73.2926C176.895 74.1222 177.054 75.1307 177.054 76.3182V77.2216H166.648V75.3125H174.557C174.557 74.642 174.421 74.0483 174.148 73.5312C173.875 73.0085 173.492 72.5966 172.997 72.2955C172.509 71.9943 171.935 71.8438 171.276 71.8438C170.56 71.8438 169.935 72.0199 169.401 72.3722C168.872 72.7187 168.463 73.1733 168.174 73.7358C167.89 74.2926 167.747 74.8977 167.747 75.5511V77.0426C167.747 77.9176 167.901 78.6619 168.208 79.2756C168.52 79.8892 168.955 80.358 169.512 80.6818C170.069 81 170.719 81.1591 171.463 81.1591C171.946 81.1591 172.387 81.0909 172.784 80.9545C173.182 80.8125 173.526 80.6023 173.816 80.3239C174.105 80.0455 174.327 79.7017 174.48 79.2926L176.892 79.7273C176.699 80.4375 176.353 81.0597 175.853 81.5938C175.358 82.1222 174.736 82.5341 173.986 82.8295C173.242 83.1193 172.392 83.2642 171.438 83.2642ZM179.426 83V69.9091H181.889V71.9886H182.025C182.264 71.2841 182.684 70.7301 183.287 70.3267C183.894 69.9176 184.582 69.7131 185.349 69.7131C185.508 69.7131 185.696 69.7187 185.912 69.7301C186.133 69.7415 186.306 69.7557 186.431 69.7727V72.2102C186.329 72.1818 186.147 72.1506 185.886 72.1165C185.625 72.0767 185.363 72.0568 185.102 72.0568C184.5 72.0568 183.963 72.1847 183.491 72.4403C183.025 72.6903 182.656 73.0398 182.383 73.4886C182.11 73.9318 181.974 74.4375 181.974 75.0057V83H179.426ZM188.181 83V69.9091H190.627V72.0398H190.789C191.061 71.3182 191.507 70.7557 192.127 70.3523C192.746 69.9432 193.487 69.7386 194.351 69.7386C195.226 69.7386 195.959 69.9432 196.55 70.3523C197.147 70.7614 197.587 71.3239 197.871 72.0398H198.007C198.32 71.3409 198.817 70.7841 199.499 70.3693C200.181 69.9489 200.993 69.7386 201.936 69.7386C203.124 69.7386 204.093 70.1108 204.843 70.8551C205.598 71.5994 205.976 72.7216 205.976 74.2216V83H203.428V74.4602C203.428 73.5739 203.186 72.9318 202.703 72.5341C202.22 72.1364 201.644 71.9375 200.973 71.9375C200.144 71.9375 199.499 72.1932 199.039 72.7045C198.578 73.2102 198.348 73.8608 198.348 74.6562V83H195.808V74.2983C195.808 73.5881 195.587 73.017 195.144 72.5852C194.701 72.1534 194.124 71.9375 193.414 71.9375C192.931 71.9375 192.485 72.0653 192.076 72.321C191.672 72.571 191.345 72.9205 191.095 73.3693C190.851 73.8182 190.729 74.3381 190.729 74.929V83H188.181ZM214.45 83.2642C213.223 83.2642 212.152 82.983 211.237 82.4205C210.322 81.858 209.612 81.071 209.106 80.0597C208.6 79.0483 208.348 77.8665 208.348 76.5142C208.348 75.1562 208.6 73.9687 209.106 72.9517C209.612 71.9347 210.322 71.1449 211.237 70.5824C212.152 70.0199 213.223 69.7386 214.45 69.7386C215.677 69.7386 216.748 70.0199 217.663 70.5824C218.578 71.1449 219.288 71.9347 219.794 72.9517C220.299 73.9687 220.552 75.1562 220.552 76.5142C220.552 77.8665 220.299 79.0483 219.794 80.0597C219.288 81.071 218.578 81.858 217.663 82.4205C216.748 82.983 215.677 83.2642 214.45 83.2642ZM214.458 81.125C215.254 81.125 215.913 80.9148 216.436 80.4943C216.958 80.0739 217.345 79.5142 217.595 78.8153C217.85 78.1165 217.978 77.3466 217.978 76.5057C217.978 75.6705 217.85 74.9034 217.595 74.2045C217.345 73.5 216.958 72.9347 216.436 72.5085C215.913 72.0824 215.254 71.8693 214.458 71.8693C213.657 71.8693 212.992 72.0824 212.464 72.5085C211.941 72.9347 211.552 73.5 211.296 74.2045C211.046 74.9034 210.921 75.6705 210.921 76.5057C210.921 77.3466 211.046 78.1165 211.296 78.8153C211.552 79.5142 211.941 80.0739 212.464 80.4943C212.992 80.9148 213.657 81.125 214.458 81.125ZM232.75 73.1051L230.441 73.5142C230.344 73.2187 230.191 72.9375 229.98 72.6705C229.776 72.4034 229.497 72.1847 229.145 72.0142C228.793 71.8437 228.352 71.7585 227.824 71.7585C227.102 71.7585 226.5 71.9205 226.017 72.2443C225.534 72.5625 225.293 72.9744 225.293 73.4801C225.293 73.9176 225.455 74.2699 225.779 74.5369C226.102 74.804 226.625 75.0227 227.347 75.1932L229.426 75.6705C230.631 75.9489 231.529 76.3778 232.12 76.9574C232.71 77.5369 233.006 78.2898 233.006 79.2159C233.006 80 232.779 80.6989 232.324 81.3125C231.875 81.9205 231.247 82.3977 230.441 82.7443C229.639 83.0909 228.71 83.2642 227.654 83.2642C226.188 83.2642 224.992 82.9517 224.066 82.3267C223.139 81.696 222.571 80.8011 222.361 79.642L224.824 79.267C224.977 79.9091 225.293 80.3949 225.77 80.7244C226.247 81.0483 226.87 81.2102 227.637 81.2102C228.472 81.2102 229.139 81.0369 229.639 80.6903C230.139 80.3381 230.389 79.9091 230.389 79.4034C230.389 78.9943 230.236 78.6506 229.929 78.3722C229.628 78.0937 229.165 77.8835 228.54 77.7415L226.324 77.2557C225.102 76.9773 224.199 76.5341 223.614 75.9261C223.034 75.3182 222.745 74.5483 222.745 73.6165C222.745 72.8437 222.96 72.1676 223.392 71.5881C223.824 71.0085 224.421 70.5568 225.182 70.233C225.943 69.9034 226.816 69.7386 227.798 69.7386C229.213 69.7386 230.327 70.0455 231.139 70.6591C231.952 71.267 232.489 72.0824 232.75 73.1051ZM246.148 83.2557C245.091 83.2557 244.148 82.9858 243.318 82.446C242.494 81.9006 241.847 81.125 241.375 80.1193C240.909 79.108 240.676 77.8949 240.676 76.4801C240.676 75.0653 240.912 73.8551 241.384 72.8494C241.861 71.8437 242.514 71.0739 243.344 70.5398C244.173 70.0057 245.114 69.7386 246.165 69.7386C246.977 69.7386 247.631 69.875 248.125 70.1477C248.625 70.4148 249.011 70.7273 249.284 71.0852C249.563 71.4432 249.779 71.7585 249.932 72.0312H250.085V65.5455H252.634V83H250.145V80.9631H249.932C249.779 81.2415 249.557 81.5597 249.267 81.9176C248.983 82.2756 248.591 82.5881 248.091 82.8551C247.591 83.1222 246.943 83.2557 246.148 83.2557ZM246.71 81.0824C247.443 81.0824 248.063 80.8892 248.568 80.5028C249.08 80.1108 249.466 79.5682 249.727 78.875C249.994 78.1818 250.128 77.375 250.128 76.4545C250.128 75.5455 249.997 74.75 249.736 74.0682C249.475 73.3864 249.091 72.8551 248.585 72.4744C248.08 72.0937 247.455 71.9034 246.71 71.9034C245.943 71.9034 245.304 72.1023 244.793 72.5C244.281 72.8977 243.895 73.4403 243.634 74.1278C243.378 74.8153 243.25 75.5909 243.25 76.4545C243.25 77.3295 243.381 78.1165 243.642 78.8153C243.904 79.5142 244.29 80.0682 244.801 80.4773C245.318 80.8807 245.955 81.0824 246.71 81.0824ZM261.457 83.2642C260.167 83.2642 259.056 82.9886 258.124 82.4375C257.198 81.8807 256.482 81.0994 255.977 80.0938C255.477 79.0824 255.227 77.8977 255.227 76.5398C255.227 75.1989 255.477 74.017 255.977 72.9943C256.482 71.9716 257.187 71.1733 258.09 70.5994C258.999 70.0256 260.062 69.7386 261.278 69.7386C262.016 69.7386 262.732 69.8608 263.426 70.1051C264.119 70.3494 264.741 70.733 265.292 71.2557C265.843 71.7784 266.278 72.4574 266.596 73.2926C266.914 74.1222 267.073 75.1307 267.073 76.3182V77.2216H256.667V75.3125H264.576C264.576 74.642 264.44 74.0483 264.167 73.5312C263.894 73.0085 263.511 72.5966 263.016 72.2955C262.528 71.9943 261.954 71.8438 261.295 71.8438C260.579 71.8438 259.954 72.0199 259.42 72.3722C258.891 72.7187 258.482 73.1733 258.193 73.7358C257.908 74.2926 257.766 74.8977 257.766 75.5511V77.0426C257.766 77.9176 257.92 78.6619 258.227 79.2756C258.539 79.8892 258.974 80.358 259.531 80.6818C260.087 81 260.738 81.1591 261.482 81.1591C261.965 81.1591 262.406 81.0909 262.803 80.9545C263.201 80.8125 263.545 80.6023 263.835 80.3239C264.124 80.0455 264.346 79.7017 264.499 79.2926L266.911 79.7273C266.718 80.4375 266.372 81.0597 265.872 81.5938C265.377 82.1222 264.755 82.5341 264.005 82.8295C263.261 83.1193 262.411 83.2642 261.457 83.2642ZM283.633 77.571V69.9091H286.19V83H283.684V80.733H283.548C283.246 81.4318 282.764 82.0142 282.099 82.4801C281.44 82.9403 280.619 83.1705 279.636 83.1705C278.795 83.1705 278.05 82.9858 277.403 82.6165C276.761 82.2415 276.255 81.6875 275.886 80.9545C275.522 80.2216 275.34 79.3153 275.34 78.2358V69.9091H277.889V77.929C277.889 78.821 278.136 79.5312 278.63 80.0597C279.124 80.5881 279.766 80.8523 280.556 80.8523C281.033 80.8523 281.508 80.733 281.979 80.4943C282.457 80.2557 282.852 79.8949 283.164 79.4119C283.482 78.929 283.639 78.3153 283.633 77.571ZM298.967 73.1051L296.658 73.5142C296.561 73.2187 296.408 72.9375 296.197 72.6705C295.993 72.4034 295.714 72.1847 295.362 72.0142C295.01 71.8437 294.57 71.7585 294.041 71.7585C293.32 71.7585 292.717 71.9205 292.234 72.2443C291.751 72.5625 291.51 72.9744 291.51 73.4801C291.51 73.9176 291.672 74.2699 291.996 74.5369C292.32 74.804 292.842 75.0227 293.564 75.1932L295.643 75.6705C296.848 75.9489 297.746 76.3778 298.337 76.9574C298.928 77.5369 299.223 78.2898 299.223 79.2159C299.223 80 298.996 80.6989 298.541 81.3125C298.092 81.9205 297.464 82.3977 296.658 82.7443C295.857 83.0909 294.928 83.2642 293.871 83.2642C292.405 83.2642 291.209 82.9517 290.283 82.3267C289.357 81.696 288.788 80.8011 288.578 79.642L291.041 79.267C291.195 79.9091 291.51 80.3949 291.987 80.7244C292.464 81.0483 293.087 81.2102 293.854 81.2102C294.689 81.2102 295.357 81.0369 295.857 80.6903C296.357 80.3381 296.607 79.9091 296.607 79.4034C296.607 78.9943 296.453 78.6506 296.146 78.3722C295.845 78.0937 295.382 77.8835 294.757 77.7415L292.541 77.2557C291.32 76.9773 290.416 76.5341 289.831 75.9261C289.251 75.3182 288.962 74.5483 288.962 73.6165C288.962 72.8437 289.178 72.1676 289.609 71.5881C290.041 71.0085 290.638 70.5568 291.399 70.233C292.16 69.9034 293.033 69.7386 294.016 69.7386C295.43 69.7386 296.544 70.0455 297.357 70.6591C298.169 71.267 298.706 72.0824 298.967 73.1051ZM307.083 83.2642C305.856 83.2642 304.785 82.983 303.87 82.4205C302.955 81.858 302.245 81.071 301.739 80.0597C301.234 79.0483 300.981 77.8665 300.981 76.5142C300.981 75.1562 301.234 73.9687 301.739 72.9517C302.245 71.9347 302.955 71.1449 303.87 70.5824C304.785 70.0199 305.856 69.7386 307.083 69.7386C308.31 69.7386 309.381 70.0199 310.296 70.5824C311.211 71.1449 311.921 71.9347 312.427 72.9517C312.932 73.9687 313.185 75.1562 313.185 76.5142C313.185 77.8665 312.932 79.0483 312.427 80.0597C311.921 81.071 311.211 81.858 310.296 82.4205C309.381 82.983 308.31 83.2642 307.083 83.2642ZM307.092 81.125C307.887 81.125 308.546 80.9148 309.069 80.4943C309.592 80.0739 309.978 79.5142 310.228 78.8153C310.484 78.1165 310.611 77.3466 310.611 76.5057C310.611 75.6705 310.484 74.9034 310.228 74.2045C309.978 73.5 309.592 72.9347 309.069 72.5085C308.546 72.0824 307.887 71.8693 307.092 71.8693C306.29 71.8693 305.626 72.0824 305.097 72.5085C304.575 72.9347 304.185 73.5 303.93 74.2045C303.68 74.9034 303.555 75.6705 303.555 76.5057C303.555 77.3466 303.68 78.1165 303.93 78.8153C304.185 79.5142 304.575 80.0739 305.097 80.4943C305.626 80.9148 306.29 81.125 307.092 81.125Z" fill="black" fill-opacity="0.8"/>
</svg>
