<svg width="346" height="112" viewBox="0 0 346 112" fill="none" xmlns="http://www.w3.org/2000/svg">
<rect width="345.809" height="112" rx="44.8" fill="#FF9790"/>
<rect x="2" y="2" width="341.809" height="108" rx="42.8" stroke="black" stroke-opacity="0.2" stroke-width="4"/>
<path d="M112.778 65V47.5455H123.602V49.8125H115.411V55.1307H122.826V57.3892H115.411V65H112.778ZM126.18 65V51.9091H128.728V65H126.18ZM127.467 49.8892C127.024 49.8892 126.643 49.7415 126.325 49.446C126.012 49.1449 125.856 48.7869 125.856 48.3722C125.856 47.9517 126.012 47.5937 126.325 47.2983C126.643 46.9972 127.024 46.8466 127.467 46.8466C127.91 46.8466 128.288 46.9972 128.6 47.2983C128.918 47.5937 129.078 47.9517 129.078 48.3722C129.078 48.7869 128.918 49.1449 128.6 49.446C128.288 49.7415 127.91 49.8892 127.467 49.8892ZM134.249 57.2273V65H131.7V51.9091H134.146V54.0398H134.308C134.609 53.3466 135.081 52.7898 135.723 52.3693C136.371 51.9489 137.186 51.7386 138.169 51.7386C139.061 51.7386 139.842 51.9261 140.513 52.3011C141.183 52.6705 141.703 53.2216 142.073 53.9545C142.442 54.6875 142.627 55.5937 142.627 56.6733V65H140.078V56.9801C140.078 56.0312 139.831 55.2898 139.337 54.7557C138.842 54.2159 138.163 53.946 137.3 53.946C136.709 53.946 136.183 54.0739 135.723 54.3295C135.269 54.5852 134.908 54.9602 134.641 55.4545C134.379 55.9432 134.249 56.5341 134.249 57.2273ZM149.398 65.2898C148.568 65.2898 147.818 65.1364 147.148 64.8295C146.477 64.517 145.946 64.0653 145.554 63.4744C145.168 62.8835 144.974 62.1591 144.974 61.3011C144.974 60.5625 145.117 59.9545 145.401 59.4773C145.685 59 146.068 58.6222 146.551 58.3438C147.034 58.0653 147.574 57.8551 148.171 57.7131C148.767 57.571 149.375 57.4631 149.994 57.3892C150.778 57.2983 151.415 57.2244 151.903 57.1676C152.392 57.1051 152.747 57.0057 152.969 56.8693C153.19 56.733 153.301 56.5114 153.301 56.2045V56.1449C153.301 55.4006 153.091 54.8239 152.671 54.4148C152.256 54.0057 151.636 53.8011 150.813 53.8011C149.955 53.8011 149.278 53.9915 148.784 54.3722C148.296 54.7472 147.957 55.1648 147.77 55.625L145.375 55.0795C145.659 54.2841 146.074 53.642 146.619 53.1534C147.171 52.6591 147.804 52.3011 148.52 52.0795C149.236 51.8523 149.989 51.7386 150.778 51.7386C151.301 51.7386 151.855 51.8011 152.44 51.9261C153.031 52.0455 153.582 52.267 154.094 52.5909C154.611 52.9148 155.034 53.3778 155.364 53.9801C155.693 54.5767 155.858 55.3523 155.858 56.3068V65H153.369V63.2102H153.267C153.102 63.5398 152.855 63.8636 152.526 64.1818C152.196 64.5 151.773 64.7642 151.256 64.9744C150.739 65.1847 150.119 65.2898 149.398 65.2898ZM149.952 63.2443C150.656 63.2443 151.259 63.1051 151.759 62.8267C152.264 62.5483 152.648 62.1847 152.909 61.7358C153.176 61.2812 153.31 60.7955 153.31 60.2784V58.5909C153.219 58.6818 153.043 58.767 152.781 58.8466C152.526 58.9205 152.233 58.9858 151.903 59.0426C151.574 59.0937 151.253 59.142 150.94 59.1875C150.628 59.2273 150.367 59.2614 150.156 59.2898C149.662 59.3523 149.21 59.4574 148.801 59.6051C148.398 59.7528 148.074 59.9659 147.83 60.2443C147.591 60.517 147.472 60.8807 147.472 61.3352C147.472 61.9659 147.705 62.4432 148.171 62.767C148.636 63.0852 149.23 63.2443 149.952 63.2443ZM161.344 47.5455V65H158.796V47.5455H161.344ZM164.317 65V51.9091H166.865V65H164.317ZM165.604 49.8892C165.161 49.8892 164.78 49.7415 164.462 49.446C164.149 49.1449 163.993 48.7869 163.993 48.3722C163.993 47.9517 164.149 47.5937 164.462 47.2983C164.78 46.9972 165.161 46.8466 165.604 46.8466C166.047 46.8466 166.425 46.9972 166.737 47.2983C167.055 47.5937 167.214 47.9517 167.214 48.3722C167.214 48.7869 167.055 49.1449 166.737 49.446C166.425 49.7415 166.047 49.8892 165.604 49.8892ZM169.565 65V63.2528L176.655 54.2443V54.125H169.795V51.9091H179.834V53.767L173.016 62.6648V62.7841H180.073V65H169.565ZM186.433 65.2898C185.604 65.2898 184.854 65.1364 184.183 64.8295C183.513 64.517 182.981 64.0653 182.589 63.4744C182.203 62.8835 182.01 62.1591 182.01 61.3011C182.01 60.5625 182.152 59.9545 182.436 59.4773C182.72 59 183.104 58.6222 183.587 58.3438C184.07 58.0653 184.609 57.8551 185.206 57.7131C185.802 57.571 186.41 57.4631 187.03 57.3892C187.814 57.2983 188.45 57.2244 188.939 57.1676C189.427 57.1051 189.783 57.0057 190.004 56.8693C190.226 56.733 190.337 56.5114 190.337 56.2045V56.1449C190.337 55.4006 190.126 54.8239 189.706 54.4148C189.291 54.0057 188.672 53.8011 187.848 53.8011C186.99 53.8011 186.314 53.9915 185.82 54.3722C185.331 54.7472 184.993 55.1648 184.805 55.625L182.41 55.0795C182.695 54.2841 183.109 53.642 183.655 53.1534C184.206 52.6591 184.839 52.3011 185.555 52.0795C186.271 51.8523 187.024 51.7386 187.814 51.7386C188.337 51.7386 188.891 51.8011 189.476 51.9261C190.067 52.0455 190.618 52.267 191.129 52.5909C191.646 52.9148 192.07 53.3778 192.399 53.9801C192.729 54.5767 192.893 55.3523 192.893 56.3068V65H190.405V63.2102H190.302C190.138 63.5398 189.891 63.8636 189.561 64.1818C189.231 64.5 188.808 64.7642 188.291 64.9744C187.774 65.1847 187.155 65.2898 186.433 65.2898ZM186.987 63.2443C187.692 63.2443 188.294 63.1051 188.794 62.8267C189.3 62.5483 189.683 62.1847 189.945 61.7358C190.212 61.2812 190.345 60.7955 190.345 60.2784V58.5909C190.254 58.6818 190.078 58.767 189.817 58.8466C189.561 58.9205 189.268 58.9858 188.939 59.0426C188.609 59.0937 188.288 59.142 187.976 59.1875C187.663 59.2273 187.402 59.2614 187.192 59.2898C186.697 59.3523 186.246 59.4574 185.837 59.6051C185.433 59.7528 185.109 59.9659 184.865 60.2443C184.626 60.517 184.507 60.8807 184.507 61.3352C184.507 61.9659 184.74 62.4432 185.206 62.767C185.672 63.0852 186.266 63.2443 186.987 63.2443ZM201.346 65.2642C200.079 65.2642 198.988 64.9773 198.073 64.4034C197.164 63.8239 196.465 63.0256 195.976 62.0085C195.488 60.9915 195.243 59.8267 195.243 58.5142C195.243 57.1847 195.493 56.0114 195.993 54.9943C196.493 53.9716 197.198 53.1733 198.107 52.5994C199.016 52.0256 200.087 51.7386 201.32 51.7386C202.315 51.7386 203.201 51.9233 203.979 52.2926C204.758 52.6562 205.386 53.1676 205.863 53.8267C206.346 54.4858 206.633 55.2557 206.724 56.1364H204.243C204.107 55.5227 203.795 54.9943 203.306 54.5511C202.823 54.108 202.175 53.8864 201.363 53.8864C200.653 53.8864 200.03 54.0739 199.496 54.4489C198.968 54.8182 198.556 55.3466 198.261 56.0341C197.965 56.7159 197.817 57.5227 197.817 58.4545C197.817 59.4091 197.962 60.233 198.252 60.9261C198.542 61.6193 198.951 62.1562 199.479 62.5369C200.013 62.9176 200.641 63.108 201.363 63.108C201.846 63.108 202.283 63.0199 202.675 62.8438C203.073 62.6619 203.405 62.4034 203.672 62.0682C203.945 61.733 204.136 61.3295 204.243 60.858H206.724C206.633 61.7045 206.357 62.4602 205.897 63.125C205.437 63.7898 204.82 64.3125 204.047 64.6932C203.28 65.0739 202.38 65.2642 201.346 65.2642ZM200.425 64.9318H202.096L201.959 65.6307C202.454 65.7102 202.886 65.9091 203.255 66.2273C203.624 66.5455 203.809 67.0256 203.809 67.6676C203.815 68.4347 203.482 69.0568 202.812 69.5341C202.147 70.0114 201.184 70.25 199.922 70.25L199.871 68.8267C200.462 68.8267 200.94 68.7415 201.303 68.571C201.672 68.4006 201.86 68.125 201.866 67.7443C201.871 67.3636 201.729 67.0966 201.44 66.9432C201.155 66.7898 200.701 66.6818 200.076 66.6193L200.425 64.9318ZM212.802 65.2898C211.973 65.2898 211.223 65.1364 210.552 64.8295C209.882 64.517 209.351 64.0653 208.959 63.4744C208.572 62.8835 208.379 62.1591 208.379 61.3011C208.379 60.5625 208.521 59.9545 208.805 59.4773C209.089 59 209.473 58.6222 209.956 58.3438C210.439 58.0653 210.979 57.8551 211.575 57.7131C212.172 57.571 212.78 57.4631 213.399 57.3892C214.183 57.2983 214.819 57.2244 215.308 57.1676C215.797 57.1051 216.152 57.0057 216.373 56.8693C216.595 56.733 216.706 56.5114 216.706 56.2045V56.1449C216.706 55.4006 216.496 54.8239 216.075 54.4148C215.66 54.0057 215.041 53.8011 214.217 53.8011C213.359 53.8011 212.683 53.9915 212.189 54.3722C211.7 54.7472 211.362 55.1648 211.175 55.625L208.78 55.0795C209.064 54.2841 209.479 53.642 210.024 53.1534C210.575 52.6591 211.209 52.3011 211.925 52.0795C212.64 51.8523 213.393 51.7386 214.183 51.7386C214.706 51.7386 215.26 51.8011 215.845 51.9261C216.436 52.0455 216.987 52.267 217.498 52.5909C218.015 52.9148 218.439 53.3778 218.768 53.9801C219.098 54.5767 219.263 55.3523 219.263 56.3068V65H216.774V63.2102H216.672C216.507 63.5398 216.26 63.8636 215.93 64.1818C215.601 64.5 215.177 64.7642 214.66 64.9744C214.143 65.1847 213.524 65.2898 212.802 65.2898ZM213.356 63.2443C214.061 63.2443 214.663 63.1051 215.163 62.8267C215.669 62.5483 216.052 62.1847 216.314 61.7358C216.581 61.2812 216.714 60.7955 216.714 60.2784V58.5909C216.623 58.6818 216.447 58.767 216.186 58.8466C215.93 58.9205 215.638 58.9858 215.308 59.0426C214.979 59.0937 214.658 59.142 214.345 59.1875C214.033 59.2273 213.771 59.2614 213.561 59.2898C213.067 59.3523 212.615 59.4574 212.206 59.6051C211.802 59.7528 211.479 59.9659 211.234 60.2443C210.996 60.517 210.876 60.8807 210.876 61.3352C210.876 61.9659 211.109 62.4432 211.575 62.767C212.041 63.0852 212.635 63.2443 213.356 63.2443ZM211.754 50.3239L210.041 50.2727C210.041 49.3295 210.294 48.5767 210.8 48.0142C211.311 47.4517 211.942 47.1705 212.692 47.1705C213.038 47.1705 213.342 47.2301 213.604 47.3494C213.865 47.4631 214.109 47.5966 214.337 47.75C214.569 47.8977 214.8 48.0312 215.027 48.1506C215.26 48.2642 215.518 48.321 215.802 48.321C216.132 48.321 216.399 48.196 216.604 47.946C216.814 47.696 216.919 47.3864 216.919 47.017L218.598 47.1278C218.598 48.0767 218.342 48.8239 217.831 49.3693C217.319 49.9091 216.692 50.1818 215.947 50.1875C215.544 50.1875 215.209 50.1307 214.942 50.017C214.68 49.8977 214.447 49.7642 214.243 49.6165C214.038 49.4631 213.828 49.3267 213.612 49.2074C213.396 49.0881 213.138 49.0284 212.837 49.0284C212.518 49.0284 212.257 49.1534 212.052 49.4034C211.854 49.6477 211.754 49.9545 211.754 50.3239ZM227.715 65.2642C226.488 65.2642 225.417 64.983 224.502 64.4205C223.587 63.858 222.877 63.071 222.371 62.0597C221.866 61.0483 221.613 59.8665 221.613 58.5142C221.613 57.1562 221.866 55.9687 222.371 54.9517C222.877 53.9347 223.587 53.1449 224.502 52.5824C225.417 52.0199 226.488 51.7386 227.715 51.7386C228.942 51.7386 230.013 52.0199 230.928 52.5824C231.843 53.1449 232.553 53.9347 233.059 54.9517C233.564 55.9687 233.817 57.1562 233.817 58.5142C233.817 59.8665 233.564 61.0483 233.059 62.0597C232.553 63.071 231.843 63.858 230.928 64.4205C230.013 64.983 228.942 65.2642 227.715 65.2642ZM227.724 63.125C228.519 63.125 229.178 62.9148 229.701 62.4943C230.224 62.0739 230.61 61.5142 230.86 60.8153C231.116 60.1165 231.243 59.3466 231.243 58.5057C231.243 57.6705 231.116 56.9034 230.86 56.2045C230.61 55.5 230.224 54.9347 229.701 54.5085C229.178 54.0824 228.519 53.8693 227.724 53.8693C226.922 53.8693 226.258 54.0824 225.729 54.5085C225.206 54.9347 224.817 55.5 224.562 56.2045C224.312 56.9034 224.187 57.6705 224.187 58.5057C224.187 59.3466 224.312 60.1165 224.562 60.8153C224.817 61.5142 225.206 62.0739 225.729 62.4943C226.258 62.9148 226.922 63.125 227.724 63.125Z" fill="#333333"/>
</svg>
